<svg xmlns="http://www.w3.org/2000/svg" xmlns:xlink="http://www.w3.org/1999/xlink" viewBox="0 0 256 256"><defs><style>.cls-1{fill:#fff;}.cls-2{mask:url(#mask);}.cls-3{fill:url(#linear-gradient);}</style><mask id="mask" x="0" y="0" width="256" height="256" maskUnits="userSpaceOnUse"><path class="cls-1" d="M185.74,28l57.74,100L185.74,228H70.26L12.53,128,70.26,28H185.74m5.77-10h-127L61.6,23,3.87,123,1,128l2.89,5L61.6,233l2.89,5h127l2.89-5,57.74-100,2.89-5-2.89-5L194.4,23l-2.89-5Z"/></mask><linearGradient id="linear-gradient" x1="256" y1="256" x2="0" gradientUnits="userSpaceOnUse"><stop offset="0" stop-color="blue"/><stop offset="1" stop-color="#a3a3ff"/></linearGradient></defs><title>Hex</title><g id="Base_Hex" data-name="Base Hex"><polygon points="185.74 28 70.27 28 12.53 128 70.27 228 185.74 228 243.47 128 185.74 28"/></g><g id="Layer_2" data-name="Layer 2"><g class="cls-2"><rect class="cls-3" width="256" height="256"/></g></g></svg>