<svg id="Artboard_2" data-name="Artboard 2" xmlns="http://www.w3.org/2000/svg" xmlns:xlink="http://www.w3.org/1999/xlink" viewBox="0 0 256 256"><defs><style>.cls-1{fill:#fff;}.cls-2{mask:url(#mask);}.cls-3{fill:url(#linear-gradient);}</style><mask id="mask" x="-47" y="-47" width="350" height="350" maskUnits="userSpaceOnUse"><path class="cls-1" d="M128,12.43,228.09,70.22V185.78L128,243.57,27.91,185.78V70.22L128,12.43M128,.88l-5,2.89L22.91,61.56l-5,2.89V191.56l5,2.89L123,252.23l5,2.89,5-2.89,100.09-57.78,5-2.89V64.44l-5-2.89L133,3.77,128,.88Z"/></mask><linearGradient id="linear-gradient" x1="256.11" y1="256.11" x2="-0.11" y2="-0.11" gradientUnits="userSpaceOnUse"><stop offset="0" stop-color="blue"/><stop offset="1" stop-color="#a3a3ff"/></linearGradient></defs><title>Hex-02</title><g id="Base_Hex" data-name="Base Hex"><polygon points="128 12.43 27.91 70.22 27.91 185.78 128 243.57 228.09 185.78 228.09 70.22 128 12.43"/></g><g class="cls-2"><g id="Outline"><rect class="cls-3" x="-0.11" y="-0.11" width="256.22" height="256.22" transform="translate(-46.85 81.15) rotate(-30)"/></g></g></svg>