<svg xmlns="http://www.w3.org/2000/svg" xmlns:xlink="http://www.w3.org/1999/xlink" viewBox="0 0 1108.5 1108.5"><defs><style>.cls-1{opacity:0.75;}.cls-2{fill:#fff;}.cls-3{mask:url(#mask);}</style><mask id="mask" x="-0.01" y="42.25" width="1108.51" height="1024" maskUnits="userSpaceOnUse"><g class="cls-1"><polygon class="cls-2" points="226.7 999.36 226.7 871.36 115.85 807.36 115.85 679.36 4.99 615.36 4.99 493.14 115.85 429.14 115.85 301.14 226.7 237.14 226.7 109.14 332.55 48.02 443.4 112.02 554.25 48.02 665.1 112.02 775.95 48.02 881.8 109.14 881.85 237.14 992.65 301.14 992.68 429.14 1103.5 493.14 1103.5 615.36 992.68 679.36 992.65 807.36 881.83 871.36 881.8 999.36 775.95 1060.48 665.1 996.48 554.25 1060.48 443.4 996.48 332.55 1060.48 226.7 999.36"/><path d="M332.55,53.8,438.4,114.91l5,2.89,5-2.89L554.25,53.8,660.1,114.91l5,2.89,5-2.89L775.95,53.8,876.8,112l0,122.23V240l5,2.89L987.65,304l0,122.23V432l5,2.89L1098.5,496V612.48L992.67,673.59l-5,2.89v5.77l0,122.23L881.82,865.59l-5,2.89v5.77l0,122.23L775.95,1054.7,670.1,993.59l-5-2.89-5,2.89L554.25,1054.7,448.4,993.59l-5-2.89-5,2.89L332.55,1054.7,231.7,996.48v-128l-5-2.89L120.85,804.48v-128l-5-2.89L10,612.48V496l105.85-61.11,5-2.89V304L226.7,242.91l5-2.89V112L332.55,53.8m443.4-11.55-110.85,64-110.85-64-110.85,64-110.85-64-110.85,64v128l-110.85,64v128L0,490.25v128l110.85,64v128l110.85,64v128l110.85,64,110.85-64,110.85,64,110.85-64,110.85,64,110.85-64,0-128,110.83-64,0-128,110.83-64v-128l-110.83-64,0-128-110.8-64,0-128-110.85-64Z"/></g></mask></defs><title>Hex</title><g id="Overlay_Hex_Size_5" data-name="Overlay Hex Size 5"><g class="cls-3"><polygon class="cls-1" points="997.68 682.25 1108.5 618.25 1108.5 490.25 997.68 426.25 997.65 298.25 886.85 234.25 886.8 106.25 775.95 42.25 665.1 106.25 554.25 42.25 443.4 106.25 332.55 42.25 221.7 106.25 221.7 234.25 110.85 298.25 110.85 426.25 -0.01 490.25 -0.01 618.25 110.85 682.25 110.85 810.25 221.7 874.25 221.7 1002.25 332.55 1066.25 443.4 1002.25 554.25 1066.25 665.1 1002.25 775.95 1066.25 886.8 1002.25 886.83 874.25 997.65 810.25 997.68 682.25"/></g></g></svg>