<svg xmlns="http://www.w3.org/2000/svg" xmlns:xlink="http://www.w3.org/1999/xlink" viewBox="0 0 554.25 554.25"><defs><style>.cls-1{fill:#fff;}.cls-2{mask:url(#mask);}.cls-3{opacity:0.5;}</style><mask id="mask" x="0" y="53.12" width="554.25" height="448" maskUnits="userSpaceOnUse"><polygon class="cls-1" points="5 434.24 5 312.01 115.85 248.01 115.85 120.01 221.7 58.9 332.55 122.9 443.4 58.9 549.25 120.01 549.25 242.24 438.35 306.24 438.4 434.24 332.55 495.35 221.7 431.35 110.85 495.35 5 434.24"/><path d="M443.4,64.67,544.25,122.9V239.35l-105.9,61.11-5,2.89v5.78l0,122.22L332.55,489.58,226.7,428.46l-5-2.89-5,2.89L110.85,489.58,10,431.35V314.9l105.85-61.11,5-2.89v-128L221.7,64.67l105.85,61.11,5,2.89,5-2.89L443.4,64.67m0-11.55-110.85,64-110.85-64-110.85,64v128L0,309.13v128l110.85,64,110.85-64,110.85,64,110.85-64-.05-128,110.9-64v-128l-110.85-64Z"/></mask></defs><title>Hex</title><g id="Overlay_Hex_Size_2" data-name="Overlay Hex Size 2"><g class="cls-2"><g class="cls-3"><polygon class="cls-1" points="443.35 309.13 554.25 245.13 554.25 117.13 443.4 53.13 332.55 117.13 221.7 53.13 110.85 117.13 110.85 245.13 0 309.13 0 437.13 110.85 501.13 221.7 437.13 332.55 501.13 443.4 437.13 443.35 309.13"/></g></g></g></svg>