<svg xmlns="http://www.w3.org/2000/svg" xmlns:xlink="http://www.w3.org/1999/xlink" viewBox="0 0 554.25 554.25"><defs><style>.cls-1{fill:#fff;}.cls-2{mask:url(#mask);}.cls-3{fill:url(#linear-gradient);}</style><mask id="mask" x="0" y="53.12" width="554.25" height="448" maskUnits="userSpaceOnUse"><path class="cls-1" d="M443.4,64.67,544.25,122.9V239.35l-105.9,61.11-5,2.89v5.78l0,122.22L332.55,489.58,226.7,428.46l-5-2.89-5,2.89L110.85,489.58,10,431.35V314.9l105.85-61.11,5-2.89v-128L221.7,64.67l105.85,61.11,5,2.89,5-2.89L443.4,64.67m0-11.55-110.85,64-110.85-64-110.85,64v128L0,309.13v128l110.85,64,110.85-64,110.85,64,110.85-64-.05-128,110.9-64v-128l-110.85-64Z"/></mask><linearGradient id="linear-gradient" x1="527.69" y1="527.69" x2="26.56" y2="26.56" gradientUnits="userSpaceOnUse"><stop offset="0" stop-color="blue"/><stop offset="1" stop-color="#a3a3ff"/></linearGradient></defs><title>Hex</title><g id="Blue_Hex_Size_2" data-name="Blue Hex Size 2"><polygon points="443.35 309.13 554.25 245.13 554.25 117.13 443.4 53.13 332.55 117.13 221.7 53.13 110.85 117.13 110.85 245.13 0 309.13 0 437.13 110.85 501.13 221.7 437.13 332.55 501.13 443.4 437.13 443.35 309.13"/><g class="cls-2"><g id="Outline"><rect class="cls-3" y="53.13" width="554.25" height="448"/></g></g></g></svg>