<svg xmlns="http://www.w3.org/2000/svg" xmlns:xlink="http://www.w3.org/1999/xlink" viewBox="0 0 1108.5 1108.5"><defs><style>.cls-1{fill:#fff;}.cls-2{mask:url(#mask);}.cls-3{fill:url(#linear-gradient);}</style><mask id="mask" x="-0.05" y="0" width="1108.55" height="1108.5" maskUnits="userSpaceOnUse"><path class="cls-1" d="M554.25,53.8,660.1,114.91l5,2.89,5-2.89L776,53.8,876.8,112l0,122.23V240l5,2.89L987.65,304l0,122.23V432l5,2.89L1098.5,496V612.48L992.67,673.59l-5,2.89v5.77l0,122.23L881.82,865.59l-5,2.89v5.77l0,122.23L776,1054.7,670.1,993.59l-5-2.89-5,2.89L554.25,1054.7,448.4,993.59l-5-2.89-5,2.89L332.55,1054.7,231.7,996.48v-128l-5-2.89L120.85,804.48v-128l-5-2.89L10,612.48V496l105.85-61.11,5-2.89V304L226.7,242.91l5-2.89V112L332.55,53.8,438.4,114.91l5,2.89,5-2.89L554.25,53.8M776,42.25l-110.85,64-110.85-64-110.85,64-110.85-64-110.85,64v128l-110.85,64v128L0,490.25v128l110.85,64v128l110.85,64v128l110.85,64,110.85-64,110.85,64,110.85-64,110.85,64,110.85-64,0-128,110.83-64,0-128,110.83-64v-128l-110.83-64,0-128-110.8-64,0-128L776,42.25Z"/></mask><linearGradient id="linear-gradient" x1="1108.45" y1="1108.5" x2="-0.05" gradientUnits="userSpaceOnUse"><stop offset="0" stop-color="blue"/><stop offset="1" stop-color="#a3a3ff"/></linearGradient></defs><title>Hex</title><g id="Blue_Hex_Size_5" data-name="Blue Hex Size 5"><polygon points="997.68 682.25 1108.5 618.25 1108.5 490.25 997.68 426.25 997.65 298.25 886.85 234.25 886.8 106.25 775.95 42.25 665.1 106.25 554.25 42.25 443.4 106.25 332.55 42.25 221.7 106.25 221.7 234.25 110.85 298.25 110.85 426.25 -0.01 490.25 -0.01 618.25 110.85 682.25 110.85 810.25 221.7 874.25 221.7 1002.25 332.55 1066.25 443.4 1002.25 554.25 1066.25 665.1 1002.25 775.95 1066.25 886.8 1002.25 886.83 874.25 997.65 810.25 997.68 682.25"/><g class="cls-2"><g id="Outline"><rect class="cls-3" x="-0.05" width="1108.5" height="1108.5"/></g></g></g></svg>