<svg xmlns="http://www.w3.org/2000/svg" xmlns:xlink="http://www.w3.org/1999/xlink" viewBox="0 0 665.1 665.1"><defs><style>.cls-1{fill:#fff;}.cls-2{fill:url(#linear-gradient);}.cls-3{fill:#008ca5;}.cls-4{fill:#00697c;}.cls-5{fill:#cce8ed;}.cls-6{fill:#0071bc;}.cls-7{fill:#00395e;}.cls-8{fill:#338dc9;}.cls-9{fill:#0027a5;}.cls-10{fill:#443381;}.cls-11{fill:#754c24;}.cls-12{fill:#3b2612;}.cls-13{fill:#58391b;}.cls-14{fill:#917050;}.cls-15{fill:#7e6947;}.cls-16{fill:#ae4b4d;}.cls-17{fill:#e86466;}.cls-18{fill:#ccc;}.cls-19{fill:#999;}.cls-20{mask:url(#mask);}.cls-21{fill:url(#linear-gradient-2);}</style><linearGradient id="linear-gradient" x1="571.4" y1="571.4" x2="93.7" y2="93.7" gradientUnits="userSpaceOnUse"><stop offset="0" stop-color="#00c8c8"/><stop offset="1" stop-color="#96ffff"/></linearGradient><mask id="mask" x="-0.05" y="0" width="665.1" height="665.05" maskUnits="userSpaceOnUse"><path class="cls-1" d="M221.65,24,327.5,85.16l5,2.89,5-2.89L443.35,24,544.2,82.27v128l5,2.89,105.85,61.14V390.78L549.2,451.86l-5,2.89v128L443.35,641,337.5,579.84l-5-2.89-5,2.89L221.65,641,120.8,582.73v-128l-5-2.89L9.95,390.77V274.32L115.8,213.18l5-2.89v-128L221.65,24M443.35,12.5,332.5,76.5l-110.85-64L110.8,76.5v128l-110.85,64v128l110.85,64v128l110.85,64,110.85-64,110.85,64,110.85-64v-128l110.85-64v-128l-110.85-64V76.5l-110.85-64Z"/></mask><linearGradient id="linear-gradient-2" x1="1006.05" y1="756.42" x2="341" y2="91.37" gradientTransform="translate(-341 -91.37)" gradientUnits="userSpaceOnUse"><stop offset="0" stop-color="lime"/><stop offset="1" stop-color="#baffba"/></linearGradient></defs><title>Hex</title><g id="Blog"><polygon class="cls-2" points="554.25 204.57 554.25 76.55 443.4 12.55 332.55 76.55 221.7 12.55 110.85 76.55 110.85 204.57 0 268.6 0 396.6 110.85 460.56 110.85 588.55 221.7 652.55 332.55 588.55 443.4 652.55 554.25 588.55 554.25 460.57 665.1 396.6 665.1 268.6 554.25 204.57"/><path class="cls-3" d="M413.05,440.64V185.31H224.42a20.33,20.33,0,0,0-20.33,20.33V440.31a20.33,20.33,0,0,0,20.33,20.33H413.05V452h-4.67V440.64Z"/><rect class="cls-4" x="221.42" y="185.31" width="191.64" height="248"/><path class="cls-5" d="M329.14,440.64H221.34a5.67,5.67,0,0,0,0,11.33H408.39V440.64Z"/><polygon class="cls-6" points="233.39 446.31 233.39 481.31 249.39 470.81 265.39 481.31 265.39 446.31 233.39 446.31"/><rect class="cls-7" x="253.47" y="218.95" width="127.59" height="41.33"/><rect class="cls-8" x="264.75" y="227.31" width="104.97" height="12"/><rect class="cls-8" x="277.42" y="245.31" width="79.64" height="8.02"/><rect class="cls-9" x="413.05" y="198.61" width="10" height="40.68"/><rect class="cls-8" x="413.05" y="249.32" width="10" height="40.68"/><rect class="cls-10" x="413.05" y="300.04" width="10" height="40.68"/><rect class="cls-11" x="328.73" y="306.62" width="224.3" height="13.35" transform="translate(127.57 754.17) rotate(-90)"/><rect class="cls-12" x="341.32" y="305.86" width="224.3" height="14.87" transform="translate(140.16 766.76) rotate(-90)"/><rect class="cls-13" x="335.4" y="306.06" width="224.3" height="14.47" transform="translate(134.25 760.85) rotate(-90)"/><polygon class="cls-14" points="434.26 425.39 460.91 425.41 447.28 462.22 434.26 425.39"/><polygon class="cls-15" points="447.55 425.4 460.91 425.41 447.28 462.22 447.55 425.4"/><polygon points="447.28 462.22 451.45 450.94 443.29 450.94 447.28 462.22"/><path class="cls-16" d="M447.55,183.74h9.92a3.5,3.5,0,0,1,3.5,3.5v11a3.5,3.5,0,0,1-3.5,3.5h-9.92"/><path class="cls-17" d="M447.55,183.74h-9.92a3.5,3.5,0,0,0-3.5,3.5v11a3.5,3.5,0,0,0,3.5,3.5h9.92"/><rect class="cls-18" x="434.13" y="198.35" width="26.84" height="5.22"/><rect class="cls-19" x="447.55" y="198.35" width="13.42" height="5.22"/><g class="cls-20"><g id="Outline"><rect class="cls-21" width="665.05" height="665.05"/></g></g></g></svg>