<svg xmlns="http://www.w3.org/2000/svg" xmlns:xlink="http://www.w3.org/1999/xlink" viewBox="0 0 665.1 665.1"><defs><style>.cls-1{fill:#fff;}.cls-2{fill:url(#linear-gradient);}.cls-3{mask:url(#mask);}.cls-4{fill:url(#linear-gradient-2);}.cls-5{fill:#ccc;}.cls-5,.cls-7,.cls-9{fill-rule:evenodd;}.cls-6{fill:#999;}.cls-7{fill:#b3b3b3;}.cls-8{fill:#82027e;}.cls-9{fill:#c4429e;}</style><linearGradient id="linear-gradient" x1="571.35" y1="571.35" x2="93.65" y2="93.65" gradientUnits="userSpaceOnUse"><stop offset="0" stop-color="#ed6300"/><stop offset="1" stop-color="#ffe5a2"/></linearGradient><mask id="mask" x="-0.05" y="0" width="665.15" height="665.1" maskUnits="userSpaceOnUse"><path class="cls-1" d="M443.35,24,544.2,82.27v128l5,2.89,105.85,61.14V390.78L549.2,451.86l-5,2.89v128L443.35,641,337.5,579.84l-5-2.89-5,2.89L221.65,641,120.8,582.73v-128l-5-2.89L9.95,390.77V274.32L115.8,213.18l5-2.89v-128L221.65,24,327.5,85.16l5,2.89,5-2.89L443.35,24m0-11.55L332.5,76.5l-110.85-64L110.8,76.5v128l-110.85,64v128l110.85,64v128l110.85,64,110.85-64,110.85,64,110.85-64v-128l110.85-64v-128l-110.85-64V76.5l-110.85-64Z"/></mask><linearGradient id="linear-gradient-2" x1="523.23" y1="1194.57" x2="-141.87" y2="529.47" gradientTransform="translate(141.87 -529.47)" gradientUnits="userSpaceOnUse"><stop offset="0" stop-color="red"/><stop offset="1" stop-color="#ffb4b4"/></linearGradient></defs><title>Hex</title><g id="Plant"><polygon class="cls-2" points="554.2 204.53 554.2 76.5 443.35 12.5 332.5 76.5 221.65 12.5 110.8 76.5 110.8 204.53 -0.05 268.55 -0.05 396.55 110.8 460.51 110.8 588.5 221.65 652.5 332.5 588.5 443.35 652.5 554.2 588.5 554.2 460.52 665.05 396.55 665.05 268.55 554.2 204.53"/><g class="cls-3"><g id="Outline"><rect class="cls-4" width="665.1" height="665.1"/></g></g><path class="cls-5" d="M270.26,311.8h0s-139,120.34-1.48,182.73h0C407.26,434.39,270.3,311.83,270.26,311.8Z"/><rect class="cls-6" x="356.95" y="228.15" width="160.08" height="15.58" transform="translate(-58.81 264.41) rotate(-31.65)"/><path class="cls-7" d="M345.31,262.54l11.46-9.35s23.6,17.79,29.29,48.86l-12.7,5.13S369.59,283.05,345.31,262.54Z"/><path class="cls-7" d="M493.74,186.32l5.67-4.63s11.68,8.81,14.5,24.19l-6.29,2.54S505.76,196.48,493.74,186.32Z"/><circle class="cls-8" cx="268.74" cy="338.9" r="117.32"/><path class="cls-9" d="M175.62,395.31a31.48,31.48,0,0,0,21.05,17.55S193.23,398.3,175.62,395.31Z"/><path class="cls-9" d="M186.18,404s-18.74,27.56-51.93,12.11c0,0,5.85-9.58,17.69-8.39S162.28,419.1,186.18,404Z"/></g></svg>