<svg xmlns="http://www.w3.org/2000/svg" xmlns:xlink="http://www.w3.org/1999/xlink" viewBox="0 0 256 256"><defs><style>.cls-1{fill:url(#linear-gradient);}.cls-2{fill:url(#linear-gradient-2);}.cls-3{fill:#ad53fd;}.cls-4{fill:#be78fd;}.cls-5{fill:#debdfe;}.cls-6{fill:#cd9bfd;}.cls-10,.cls-11,.cls-12,.cls-13,.cls-14,.cls-15,.cls-16,.cls-7,.cls-9{fill:none;stroke-miterlimit:10;}.cls-7{stroke:#000;stroke-linecap:round;stroke-width:6.12px;}.cls-8{fill:#5445cb;}.cls-9{stroke:#ee23fd;}.cls-10,.cls-11,.cls-12,.cls-13,.cls-14,.cls-15,.cls-16,.cls-9{stroke-width:0.91px;}.cls-10{stroke:#ed2534;}.cls-11{stroke:#dfdbe7;}.cls-12{stroke:#00fd3e;}.cls-13{stroke:#373042;}.cls-14{stroke:blue;}.cls-15{stroke:#daff2c;}.cls-16{stroke:#eb8037;}</style><linearGradient id="linear-gradient" x1="215.43" y1="215.43" x2="40.57" y2="40.57" gradientUnits="userSpaceOnUse"><stop offset="0" stop-color="#00c8c8"/><stop offset="1" stop-color="#96ffff"/></linearGradient><linearGradient id="linear-gradient-2" x1="215.43" y1="215.43" x2="40.57" y2="40.57" gradientUnits="userSpaceOnUse"><stop offset="0" stop-color="red"/><stop offset="1" stop-color="#ffb4b4"/></linearGradient></defs><title>Hex</title><g id="Stux"><g id="Base_Hex" data-name="Base Hex"><polygon class="cls-1" points="128 0 17.15 64 17.15 192 128 256 238.85 192 238.85 64 128 0"/></g><path class="cls-2" d="M128,11.55,228.85,69.77V186.23L128,244.45,27.15,186.23V69.77L128,11.55M128,0,17.15,64V192L128,256l110.85-64V64L128,0Z"/><polygon class="cls-3" points="76.29 179.71 128 128 179.71 179.71 76.29 179.71"/><polygon class="cls-4" points="179.71 179.71 128 128 179.71 76.29 179.71 179.71"/><polygon class="cls-5" points="179.71 76.29 128 128 76.29 76.29 179.71 76.29"/><polygon class="cls-6" points="76.29 76.29 128 128 76.29 179.71 76.29 76.29"/><path d="M178.71,76.29a1,1,0,0,1,1,1V178.71a1,1,0,0,1-1,1H77.29a1,1,0,0,1-1-1V77.29a1,1,0,0,1,1-1H178.71m0-11.84H77.29A12.86,12.86,0,0,0,64.45,77.29V178.71a12.86,12.86,0,0,0,12.84,12.84H178.71a12.86,12.86,0,0,0,12.84-12.84V77.29a12.86,12.86,0,0,0-12.84-12.84Z"/><line class="cls-7" x1="114.45" y1="99.3" x2="114.45" y2="104.62"/><line class="cls-7" x1="123.29" y1="99.3" x2="123.29" y2="104.62"/><line class="cls-7" x1="132.49" y1="99.3" x2="132.49" y2="104.62"/><line class="cls-7" x1="141.52" y1="99.3" x2="141.52" y2="104.62"/><line class="cls-7" x1="156.7" y1="114.45" x2="151.38" y2="114.45"/><line class="cls-7" x1="156.7" y1="123.29" x2="151.38" y2="123.29"/><line class="cls-7" x1="156.7" y1="132.49" x2="151.38" y2="132.49"/><line class="cls-7" x1="156.7" y1="141.52" x2="151.38" y2="141.52"/><line class="cls-7" x1="141.55" y1="156.7" x2="141.55" y2="151.38"/><line class="cls-7" x1="132.71" y1="156.7" x2="132.71" y2="151.38"/><line class="cls-7" x1="123.51" y1="156.7" x2="123.51" y2="151.38"/><line class="cls-7" x1="114.48" y1="156.7" x2="114.48" y2="151.38"/><line class="cls-7" x1="99.3" y1="141.55" x2="104.62" y2="141.55"/><line class="cls-7" x1="99.3" y1="132.71" x2="104.62" y2="132.71"/><line class="cls-7" x1="99.3" y1="123.51" x2="104.62" y2="123.51"/><line class="cls-7" x1="99.3" y1="114.48" x2="104.62" y2="114.48"/><rect class="cls-8" x="105.6" y="105.6" width="44.79" height="44.79" rx="0.72" ry="0.72"/><path d="M148.12,107.88v40.24H107.88V107.88h40.24m1.56-4.56H106.33a3,3,0,0,0-3,3v43.35a3,3,0,0,0,3,3h43.35a3,3,0,0,0,3-3V106.33a3,3,0,0,0-3-3Z"/><polyline class="cls-9" points="107.88 120.29 110.8 120.29 110.8 141.58 119.12 141.58 119.12 148.12"/><polyline class="cls-10" points="107.88 117.97 113.27 117.97 113.27 139.23 121.58 139.23 121.58 148.12"/><polyline class="cls-11" points="116.76 107.88 116.76 129.67 128.53 129.67 128.53 148.12"/><polyline class="cls-12" points="119.12 107.88 119.12 127.35 130.96 127.35 130.96 148.12"/><polyline class="cls-13" points="122.76 107.88 122.76 117.97 134.44 117.97 134.44 148.12"/><polyline class="cls-14" points="125.12 107.88 125.12 115.67 136.8 115.67 136.8 148.12"/><polyline class="cls-15" points="141.51 107.88 141.51 142.66 148.12 142.66"/><polyline class="cls-16" points="143.91 107.88 143.91 140.4 148.12 140.4"/></g></svg>