<svg xmlns="http://www.w3.org/2000/svg" xmlns:xlink="http://www.w3.org/1999/xlink" viewBox="0 0 448 448"><defs><style>.cls-1{fill:#fff;}.cls-2{fill:url(#linear-gradient);}.cls-3{mask:url(#mask);}.cls-4{fill:url(#linear-gradient-2);}.cls-5{fill:#0071bc;}</style><linearGradient id="linear-gradient" x1="387.14" y1="442.56" x2="60.86" y2="116.29" gradientUnits="userSpaceOnUse"><stop offset="0" stop-color="#78f400"/><stop offset="1" stop-color="#f2ffc2"/></linearGradient><mask id="mask" x="0" y="0" width="448" height="448" maskUnits="userSpaceOnUse"><path class="cls-1" d="M224,11.55,324.85,69.77v128l5,2.89,105.8,61.11,0,116.45L334.85,436.45,229,375.34l-5-2.89-5,2.89L113.15,436.45,12.3,378.23V261.77l105.85-61.11,5-2.89v-128L224,11.55M224,0,113.15,64V192L2.3,256V384l110.85,64L224,384l110.85,64L445.7,384l-.05-128-110.8-64V64L224,0Z"/></mask><linearGradient id="linear-gradient-2" x1="448" y1="448" x2="0" gradientUnits="userSpaceOnUse"><stop offset="0" stop-color="#ff0"/><stop offset="1" stop-color="#ffffb4"/></linearGradient></defs><title>Hex</title><g id="Talk2Control"><polygon class="cls-2" points="445.65 256 334.85 192 334.85 64 224 0 113.15 64 113.15 192 2.3 256 2.3 384 113.15 448 224 384 334.85 448 445.7 384 445.65 256"/><g class="cls-3"><g id="Outline"><rect class="cls-4" width="448" height="448"/></g></g><path class="cls-5" d="M171.22,186.87V152h-11.9a1.83,1.83,0,0,1,0-3.67h27.52a1.83,1.83,0,0,1,0,3.67h-12v34.85a1.78,1.78,0,0,1-1.8,1.8A1.87,1.87,0,0,1,171.22,186.87Z"/><path class="cls-5" d="M217.24,187.49l-3-8h-18.1l-3,8a1.76,1.76,0,0,1-1.69,1.19,1.82,1.82,0,0,1-1.8-1.8,1.51,1.51,0,0,1,.17-.68l13.7-36.66a1.82,1.82,0,0,1,1.69-1.18,1.83,1.83,0,0,1,1.75,1.18l13.7,36.66a2.83,2.83,0,0,1,.11.68,1.85,1.85,0,0,1-1.8,1.8A1.76,1.76,0,0,1,217.24,187.49Zm-19.74-11.62h15.34l-7.67-20.47Z"/><path class="cls-5" d="M230.84,188.68a1.78,1.78,0,0,1-1.8-1.8V150.21a1.83,1.83,0,1,1,3.67,0V185h21a1.83,1.83,0,1,1,0,3.67Z"/><path class="cls-5" d="M287.13,187.94l-16.58-20.87-3,2.31v17.48a1.83,1.83,0,0,1-3.67,0V150.21a1.83,1.83,0,1,1,3.67,0v14.49l19.85-16a2,2,0,0,1,1.13-.39,1.93,1.93,0,0,1,1.92,1.86,1.82,1.82,0,0,1-.73,1.35l-16.3,13.14,16.58,21a1.82,1.82,0,0,1,.45,1.19,1.92,1.92,0,0,1-1.92,1.8A1.76,1.76,0,0,1,287.13,187.94Z"/><path class="cls-5" d="M231.88,244.73H215.52a3.64,3.64,0,0,1-3.5-3.08l0-.42a3.58,3.58,0,0,1,.87-2.32c.84-1.09,12-15.86,15.28-21a3.84,3.84,0,0,0,.74-2.26A5.05,5.05,0,0,0,224,211a4.85,4.85,0,0,0-4.87,4.82,3.53,3.53,0,0,1-3.6,3.54,3.59,3.59,0,0,1-3.54-3.54,12,12,0,0,1,12.07-12,12.19,12.19,0,0,1,12,11.81,11.12,11.12,0,0,1-1.87,6.19c-2.12,3.3-6.88,9.77-11.37,15.78h9.12a3.57,3.57,0,1,1,0,7.14Z"/><path class="cls-5" d="M81.78,288.25A20.14,20.14,0,0,1,116.18,274a1.83,1.83,0,1,1-2.59,2.59,16.2,16.2,0,0,0-11.67-4.85,16.5,16.5,0,1,0,11.67,28.14,1.83,1.83,0,0,1,3.1,1.35,1.78,1.78,0,0,1-.51,1.3,20.18,20.18,0,0,1-34.4-14.27Z"/><path class="cls-5" d="M125,288.25a20.16,20.16,0,1,1,20.13,20.13A20.16,20.16,0,0,1,125,288.25Zm3.67,0a16.5,16.5,0,1,0,16.47-16.52A16.49,16.49,0,0,0,128.65,288.25Z"/><path class="cls-5" d="M203.33,307.65l-24.19-32.26v31.19a1.83,1.83,0,0,1-3.67,0V269.92a1.86,1.86,0,0,1,1.75-1.86,1.75,1.75,0,0,1,1.52.73L202.93,301V269.92a1.84,1.84,0,0,1,1.86-1.86,1.79,1.79,0,0,1,1.8,1.86v36.66a1.78,1.78,0,0,1-1.8,1.8A1.87,1.87,0,0,1,203.33,307.65Z"/><path class="cls-5" d="M228.6,306.58V271.72H216.7a1.83,1.83,0,0,1,0-3.67h27.52a1.83,1.83,0,0,1,0,3.67h-12v34.85a1.78,1.78,0,0,1-1.8,1.8A1.87,1.87,0,0,1,228.6,306.58Z"/><path class="cls-5" d="M277.55,307.65l-13.93-17.6H258v16.52a1.83,1.83,0,0,1-3.67,0V269.92a1.8,1.8,0,0,1,1.8-1.86h13.76a11,11,0,1,1,0,22H268.3l12.13,15.34a1.82,1.82,0,0,1,.45,1.18,1.92,1.92,0,0,1-1.92,1.8A1.76,1.76,0,0,1,277.55,307.65ZM258,286.39h11.9a7.33,7.33,0,1,0,0-14.66H258Z"/><path class="cls-5" d="M289.18,288.25a20.16,20.16,0,1,1,20.13,20.13A20.16,20.16,0,0,1,289.18,288.25Zm3.67,0a16.5,16.5,0,1,0,16.47-16.52A16.49,16.49,0,0,0,292.84,288.25Z"/><path class="cls-5" d="M341.46,308.38a1.78,1.78,0,0,1-1.8-1.8V269.92a1.83,1.83,0,1,1,3.67,0v34.8h21a1.83,1.83,0,1,1,0,3.67Z"/></g></svg>