<svg xmlns="http://www.w3.org/2000/svg" xmlns:xlink="http://www.w3.org/1999/xlink" viewBox="0 0 554.25 554.25"><defs><style>.cls-1{fill:#fff;}.cls-2{fill:url(#linear-gradient);}.cls-3{mask:url(#mask);}.cls-4{fill:url(#linear-gradient-2);}.cls-5{fill:#fcc062;}.cls-6{fill:#ed1c24;}.cls-7{fill:#c1272d;}.cls-8{fill:#f47b50;}.cls-9{fill:#f7931e;}.cls-10{fill:#fcb13c;}.cls-11{fill:#ff0;}.cls-12{fill:#8d272d;}.cls-13{fill:#ffe67f;}.cls-14{fill:#ffc471;}</style><linearGradient id="linear-gradient" x1="440.26" y1="440.26" x2="113.99" y2="113.99" gradientUnits="userSpaceOnUse"><stop offset="0" stop-color="#00d868"/><stop offset="1" stop-color="#adffcb"/></linearGradient><mask id="mask" x="-0.01" y="0" width="554.26" height="554.26" maskUnits="userSpaceOnUse"><path class="cls-1" d="M443.4,64.67,544.25,122.9V239.35l-105.9,61.11-5,2.89v5.78l0,122.22L332.55,489.58,226.7,428.46l-5-2.89-5,2.89L110.85,489.58,10,431.35V314.9l105.85-61.11,5-2.89v-128L221.7,64.67l105.85,61.11,5,2.89,5-2.89L443.4,64.67m0-11.55-110.85,64-110.85-64-110.85,64v128L0,309.13v128l110.85,64,110.85-64,110.85,64,110.85-64-.05-128,110.9-64v-128l-110.85-64Z"/></mask><linearGradient id="linear-gradient-2" x1="554.25" y1="554.26" x2="-0.01" gradientUnits="userSpaceOnUse"><stop offset="0" stop-color="lime"/><stop offset="1" stop-color="#baffba"/></linearGradient></defs><title>Hex</title><g id="Awards"><polygon class="cls-2" points="443.35 309.13 554.25 245.13 554.25 117.13 443.4 53.13 332.55 117.13 221.7 53.13 110.85 117.13 110.85 245.13 0 309.13 0 437.13 110.85 501.13 221.7 437.13 332.55 501.13 443.4 437.13 443.35 309.13"/><g class="cls-3"><g id="Outline"><rect class="cls-4" x="-0.01" width="554.26" height="554.26"/></g></g><rect class="cls-5" x="198.98" y="326.5" width="101.85" height="32.67" rx="12.67" ry="12.67"/><polygon class="cls-6" points="234.25 326.5 249.91 277.5 265.56 326.5 234.25 326.5"/><polygon class="cls-7" points="237.92 315.03 249.91 317.87 261.89 315.03 249.91 277.5 237.92 315.03"/><path class="cls-8" d="M331.47,217.75c-1.7,17.66-7.87,33.92-17.82,46.58-8.79,11.18-19.72,18.44-31.48,21.07V217.75h49.3m10.48-10H272.17V296.5c38.54,0,69.77-39.73,69.77-88.75Z"/><path class="cls-8" d="M217.64,217.75V285.4c-11.76-2.63-22.68-9.88-31.48-21.07-9.95-12.65-16.13-28.92-17.82-46.58h49.3m10-10H157.86c0,49,31.24,88.75,69.77,88.75V207.75Z"/><path class="cls-5" d="M307,188.79H192.77s-1.89,88.08,27.68,110.43c16.84,12.73,29.45,13.32,29.45,13.32s12.61-.59,29.45-13.32C308.93,276.87,307,188.79,307,188.79Z"/><rect class="cls-5" x="198.98" y="344.5" width="101.85" height="14.67"/><rect class="cls-9" x="188.5" y="185.01" width="122.81" height="7.56" rx="3.78" ry="3.78"/><path class="cls-10" d="M192.84,199.17H307c.06-2.65.08-4.89.09-6.59H192.75C192.75,194.28,192.78,196.52,192.84,199.17Z"/><polygon class="cls-11" points="249.91 223.5 257.89 239.68 275.74 242.28 262.82 254.87 265.88 272.65 249.91 264.25 233.94 272.65 236.99 254.87 224.07 242.28 241.92 239.68 249.91 223.5"/><rect class="cls-12" x="285.11" y="233.58" width="113.86" height="25.72" transform="translate(39.14 -46.78) rotate(8.3)"/><polygon class="cls-7" points="396.53 267.38 338.54 310.8 327.63 296.17 400.39 241.93 396.53 267.38"/><polygon class="cls-6" points="327.01 309.25 283.85 250.94 287.71 225.36 341.95 298.12 327.01 309.25"/><path class="cls-13" d="M329.4,297.53A35.85,35.85,0,1,1,294,328.21a36.17,36.17,0,0,1,35.43-30.68m0-12a47.85,47.85,0,0,0-6.86,95.2,48.33,48.33,0,0,0,7,.51,47.85,47.85,0,0,0,6.86-95.2,48.33,48.33,0,0,0-7-.51Z"/><path class="cls-13" d="M329.49,365.24a32.23,32.23,0,0,1-4.64-.34,31.85,31.85,0,0,1-26.92-36.11A31.82,31.82,0,0,1,334,301.87,31.85,31.85,0,0,1,361,338a32,32,0,0,1-31.47,27.26Z"/><path class="cls-14" d="M329.4,305.53a28.25,28.25,0,0,1,4.06.3,27.85,27.85,0,0,1-4,55.41,28.25,28.25,0,0,1-4.06-.3,27.85,27.85,0,0,1-23.54-31.58,28,28,0,0,1,27.51-23.83m0-8a35.88,35.88,0,1,0,5.22.38,35.86,35.86,0,0,0-5.22-.38Z"/></g></svg>