<svg xmlns="http://www.w3.org/2000/svg" xmlns:xlink="http://www.w3.org/1999/xlink" viewBox="0 0 256 256"><defs><style>.cls-1{fill:url(#linear-gradient);}.cls-2{fill:url(#linear-gradient-2);}.cls-3{fill:#999;}.cls-4{fill:#4d4d4d;}.cls-5{fill:#ff0;}.cls-6{fill:red;}.cls-7{fill:#f15a24;}.cls-8{stroke:#000;stroke-linejoin:round;stroke-width:4.64px;}.cls-9{fill:#0000a9;}.cls-10{fill:#00004a;}.cls-11{fill:#00007c;}</style><linearGradient id="linear-gradient" x1="215.43" y1="215.43" x2="40.57" y2="40.57" gradientUnits="userSpaceOnUse"><stop offset="0" stop-color="#c503ff"/><stop offset="1" stop-color="#f3cdff"/></linearGradient><linearGradient id="linear-gradient-2" x1="215.43" y1="215.43" x2="40.57" y2="40.57" gradientUnits="userSpaceOnUse"><stop offset="0" stop-color="red"/><stop offset="1" stop-color="#ffb4b4"/></linearGradient></defs><title>Hex</title><g id="LaserField"><g id="Base_Hex" data-name="Base Hex"><polygon class="cls-1" points="128 0 17.15 64 17.15 192 128 256 238.85 192 238.85 64 128 0"/></g><path class="cls-2" d="M128,11.55,228.85,69.77V186.23L128,244.45,27.15,186.23V69.77L128,11.55M128,0,17.15,64V192L128,256l110.85-64V64L128,0Z"/><path class="cls-3" d="M73.4,167.31a2.8,2.8,0,0,1-2-.82l-3.82-3.82a2.81,2.81,0,0,1-.82-2v-2.31a2.8,2.8,0,0,1,.82-2L85.1,138.88a2.8,2.8,0,0,1,2-.82h11a2.8,2.8,0,0,1,2.8,2.8V164.5a2.8,2.8,0,0,1-2.8,2.8Z"/><path d="M98.07,140.86v23.64H73.4l-3.82-3.82v-2.31l17.51-17.51h11m0-5.61h-11a5.61,5.61,0,0,0-4,1.64L65.61,154.4a5.61,5.61,0,0,0-1.64,4v2.31a5.61,5.61,0,0,0,1.64,4l3.82,3.82a5.61,5.61,0,0,0,4,1.64H98.07a5.61,5.61,0,0,0,5.61-5.61V140.86a5.61,5.61,0,0,0-5.61-5.61Z"/><path class="cls-4" d="M92.46,146.47V158.9H77l12.42-12.42h3.05m5.61-5.61h-11L69.58,158.37v2.31l3.82,3.82H98.07V140.86Z"/><path class="cls-5" d="M121,205.3a2.81,2.81,0,0,1-2-.82l-3.54-3.54a2.8,2.8,0,0,1-.82-2V184.13a2.8,2.8,0,0,1,2.8-2.8h20.67a2.8,2.8,0,0,1,2.8,2.8V199a2.8,2.8,0,0,1-.83,2l-3.56,3.54a2.8,2.8,0,0,1-2,.82Z"/><path class="cls-6" d="M138.09,184.13V199l-3.56,3.54H121L117.42,199V184.13h20.67m0-5.61H117.42a5.61,5.61,0,0,0-5.61,5.61V199a5.61,5.61,0,0,0,1.64,4l3.54,3.54a5.61,5.61,0,0,0,4,1.64h13.57a5.61,5.61,0,0,0,4-1.63l3.56-3.54a5.61,5.61,0,0,0,1.65-4V184.13a5.61,5.61,0,0,0-5.61-5.61Z"/><path class="cls-7" d="M135.29,186.93v10.86l-1.91,1.9H122.13l-1.9-1.9V186.93h15.06m2.8-2.8H117.42V199L121,202.5h13.57l3.56-3.54V184.13Z"/><path class="cls-8" d="M155,115.48l-25.73-62h-2.37l-24.94,62v68.23l6.47,6.47h40.11l6.47-6.47Z"/><path class="cls-3" d="M157.93,167.31a2.8,2.8,0,0,1-2.8-2.8V140.86a2.8,2.8,0,0,1,2.8-2.8h11a2.8,2.8,0,0,1,2,.82l17.51,17.51a2.8,2.8,0,0,1,.82,2v2.31a2.81,2.81,0,0,1-.82,2l-3.82,3.82a2.8,2.8,0,0,1-2,.82Z"/><path d="M168.92,140.86l17.51,17.51v2.31l-3.82,3.82H157.93V140.86h11m0-5.61h-11a5.61,5.61,0,0,0-5.61,5.61v23.64a5.61,5.61,0,0,0,5.61,5.61H182.6a5.61,5.61,0,0,0,4-1.64l3.82-3.82a5.61,5.61,0,0,0,1.64-4v-2.31a5.61,5.61,0,0,0-1.64-4L172.88,136.9a5.61,5.61,0,0,0-4-1.64Z"/><path class="cls-4" d="M166.59,146.47,179,158.9H163.54V146.47h3.05m2.32-5.61h-11v23.64H182.6l3.82-3.82v-2.31l-17.51-17.51Z"/><path class="cls-9" d="M113.92,185.44a2.8,2.8,0,0,1-2-.82l-2-2-2-2a2.8,2.8,0,0,1-.82-2V119.22a2.79,2.79,0,0,1,.17-1l15.39-42.74a2.8,2.8,0,0,1,2.64-1.85h6.19a2.8,2.8,0,0,1,2.64,1.85l15.39,42.61a2.81,2.81,0,0,1,.17,1v59.48a2.8,2.8,0,0,1-.82,2c-1,1-1.42,1.46-1.89,2s-1,1.08-2,2.11a2.8,2.8,0,0,1-2,.82Z"/><path class="cls-10" d="M131.58,76.48,147,119.09v59.48c-2,2-1.94,2.09-3.91,4.07H113.92c-2-2-1.94-2-3.91-3.94V119.22L125.4,76.48h6.19m0-5.61H125.4a5.61,5.61,0,0,0-5.28,3.71l-15.39,42.74a5.61,5.61,0,0,0-.33,1.9V178.7a5.61,5.61,0,0,0,1.64,4l1.94,1.95,2,2a5.61,5.61,0,0,0,4,1.64h29.14a5.61,5.61,0,0,0,4-1.64c1.06-1.06,1.59-1.64,2.11-2.19s.9-1,1.81-1.88a5.61,5.61,0,0,0,1.64-4V119.09a5.61,5.61,0,0,0-.33-1.91L136.86,74.58a5.61,5.61,0,0,0-5.28-3.7Z"/><path class="cls-11" d="M128.49,84.44l12.87,35.63v56.22l-.46.5-.22.24H116.25l-.3-.3-.34-.34V120.2l12.88-35.76m3.09-8H125.4L110,119.22V178.7c2,2,1.94,2,3.91,3.94h29.14c2-2,1.94-2.09,3.91-4.07V119.09L131.58,76.48Z"/></g></svg>