<svg xmlns="http://www.w3.org/2000/svg" xmlns:xlink="http://www.w3.org/1999/xlink" viewBox="0 0 554.25 554.25"><defs><style>.cls-1{fill:#fff;}.cls-2{fill:none;}.cls-3{stroke:#0072ff;stroke-width:0.5px;}.cls-16,.cls-17,.cls-18,.cls-3{stroke-miterlimit:10;}.cls-4{fill:url(#New_Pattern_3);}.cls-5{mask:url(#mask);}.cls-6{fill:url(#linear-gradient);}.cls-7{fill:#4b8056;}.cls-11,.cls-12,.cls-13,.cls-14,.cls-15,.cls-16,.cls-17,.cls-18,.cls-19,.cls-7,.cls-8,.cls-9{fill-rule:evenodd;}.cls-10,.cls-8{fill:#efc299;}.cls-9{fill:#d6ad88;}.cls-11{fill:#224d2a;}.cls-12{fill:#1c120b;}.cls-13{fill:#171a2e;}.cls-14{fill:#c23a2c;}.cls-15{fill:#e84c3d;}.cls-16{fill:#1a1a1a;}.cls-16,.cls-17,.cls-18{stroke:#000;}.cls-16,.cls-17{stroke-width:0.92px;}.cls-18{fill:#1b1464;stroke-width:1.02px;}</style><pattern id="New_Pattern_3" data-name="New Pattern 3" width="23.67" height="23.67" patternTransform="translate(-213 -307.67)" patternUnits="userSpaceOnUse" viewBox="0 0 23.67 23.67"><rect class="cls-2" width="23.67" height="23.67"/><rect class="cls-3" x="0.25" y="0.25" width="23.17" height="23.17"/></pattern><mask id="mask" x="0" y="0" width="554.26" height="554.25" maskUnits="userSpaceOnUse"><path class="cls-1" d="M443.4,64.67,544.25,122.9V239.35l-105.9,61.11-5,2.89v5.78l0,122.22L332.55,489.58,226.7,428.46l-5-2.89-5,2.89L110.85,489.58,10,431.35V314.9l105.85-61.11,5-2.89v-128L221.7,64.67l105.85,61.11,5,2.89,5-2.89L443.4,64.67m0-11.55-110.85,64-110.85-64-110.85,64v128L0,309.13v128l110.85,64,110.85-64,110.85,64,110.85-64-.05-128,110.9-64v-128l-110.85-64Z"/></mask><linearGradient id="linear-gradient" x1="554.25" y1="554.25" x2="0" gradientUnits="userSpaceOnUse"><stop offset="0" stop-color="#ff0"/><stop offset="1" stop-color="#ffffb4"/></linearGradient></defs><title>Hex</title><g id="CPR-VR"><polygon class="cls-4" points="443.35 309.13 554.25 245.13 554.25 117.13 443.4 53.13 332.55 117.13 221.7 53.13 110.85 117.13 110.85 245.13 0 309.13 0 437.13 110.85 501.13 221.7 437.13 332.55 501.13 443.4 437.13 443.35 309.13"/><g class="cls-5"><g id="Outline"><rect class="cls-6" width="554.25" height="554.25"/></g></g><path class="cls-7" d="M198.35,307.09H307a24.5,24.5,0,0,1,24.43,24.43v8A24.5,24.5,0,0,1,307,364h-99.5V351.77h-9.1Z"/><path class="cls-8" d="M269.88,238.11h31.05c19.21,0,16.92,13.61,12.54,25.55l-16.76,45.79c-3,8.28-7.21,16-16,16H269.88Z"/><path class="cls-9" d="M269.88,238.11H238.83c-19.21,0-16.92,13.61-12.54,25.55L243,309.46c3,8.28,7.21,16,16,16h10.81Z"/><path class="cls-9" d="M253.51,309.71h20.37a6.14,6.14,0,0,1,6.13,6.13h0a6.14,6.14,0,0,1-6.13,6.13H253.51a6.14,6.14,0,0,1-6.13-6.13h0A6.14,6.14,0,0,1,253.51,309.71Z"/><path class="cls-10" d="M261.43,313.24H281.8a6.12,6.12,0,0,1,6.12,6.12v0a6.13,6.13,0,0,1-6.13,6.13H261.43a6.13,6.13,0,0,1-6.13-6.13v0a6.12,6.12,0,0,1,6.12-6.12Z"/><path class="cls-8" d="M293.51,342.12H188.68a11,11,0,0,0-10.93,10.93h0A11,11,0,0,0,188.68,364H293.51a11,11,0,0,0,10.93-10.93h0A11,11,0,0,0,293.51,342.12Z"/><path class="cls-11" d="M293.51,342.12H259.12V364h34.39a11,11,0,0,0,10.93-10.93h0A11,11,0,0,0,293.51,342.12Z"/><path class="cls-8" d="M351.79,360.76A27.8,27.8,0,1,0,324,333,27.85,27.85,0,0,0,351.79,360.76Z"/><path class="cls-12" d="M353.08,362.65c-14.42,0-26.82-9.57-29.75-23.75a12.46,12.46,0,0,1-.26-4.28c8.82,1.8,8.83,2.1,18,.69,1.2-.19.49.29,1,2.07a8.09,8.09,0,1,0,15.84-3.29c-.36-3.06.58-5.45,4.15-4.89,2.66.42,4.76.63,6.28-2.18,1-1.77.55-5.77,1.06-8.29a21.28,21.28,0,0,1,13.25-15.45c4.09-1.44,8.67,2.86,6.73,6.16-4.87,8.28-6.79,14.11-6.92,23.79C382.15,349.52,369.33,362.11,353.08,362.65Z"/><path class="cls-13" d="M244.21,215.42A37.88,37.88,0,0,0,252,252c2.28,2.57,2.16,2.78,1.41-.28a42.85,42.85,0,0,1,.59-22.59,31.77,31.77,0,0,0,35.54,0,72.38,72.38,0,0,1,.8,20c-.33,3.56-.76,3.77,2.18.75A35.07,35.07,0,0,0,302.37,224c-.46-11.9-5-18.53-16-23.12-9.5-4-19.26-3.35-28.48,1C251.62,204.94,246,209.61,244.21,215.42Z"/><path class="cls-8" d="M252.69,248.17a26.58,26.58,0,0,0,37.76-.46,71.94,71.94,0,0,0-.91-18.6,31.77,31.77,0,0,1-35.54,0A42.85,42.85,0,0,0,252.69,248.17Z"/><path class="cls-13" d="M277.18,183a14,14,0,0,0-7.8,15.57,33.17,33.17,0,0,1,17,2.39,33.86,33.86,0,0,1,7.14,3.91A13.95,13.95,0,0,0,277.18,183Z"/><polygon class="cls-14" points="291.25 276.47 296.63 261.1 298.5 261.75 293.34 276.47 291.25 276.47"/><polygon class="cls-14" points="249.07 276.47 243.71 261.14 241.84 261.79 246.98 276.47 249.07 276.47"/><path class="cls-15" d="M298.5,261.75l-5.15,14.72H308.8l4.69-12.8c4.37-11.94,6.67-25.55-12.54-25.55H300a34.92,34.92,0,0,1-7.51,11.7c-2.94,3-2.51,2.81-2.18-.74q.06-.68.12-1.37A26.59,26.59,0,0,1,272,255.8c-.72,0-1.45,0-2.16,0a26.59,26.59,0,0,1-17.19-7.6q.28,1.78.71,3.53c.75,3.06.87,2.85-1.41.28a37.82,37.82,0,0,1-7.83-13.86h-5.34c-19.21,0-16.92,13.61-12.54,25.55l4.69,12.8h16l-5.14-14.68,1.86-.65,16.08,46,.91,2.62h13.18a6.13,6.13,0,0,1,4.89,2.44l1.77-5.06,16.1-46Z"/><path class="cls-16" d="M248.47,241.33s-5.32-7.37-6-12.91.48-7.42.48-7.42,2.53,11.31,5.9,14.47"/><path class="cls-16" d="M295.7,240.53s5.86-6.61,6.56-12.15-.21-8.19-.21-8.19-3.34,11.31-6.71,14.47"/><path class="cls-17" d="M272.48,251c8.51-.23,17.05-1.53,22.92-7.59h0a87.06,87.06,0,0,0-.56-12.11h0c-13.08,8.83-32.49,9.65-45.57.82h0a57.41,57.41,0,0,0-.75,11.74C248.61,245.82,263.66,251.26,272.48,251Z"/><path class="cls-18" d="M272.42,254.62c9.44-.25,19-1.68,25.49-8.41,0,0-.12-8.13-.64-12.59h0c-14.51,9.79-36,10.7-50.55.91h0a63.69,63.69,0,0,0-.84,13C246,249.7,262.64,254.88,272.42,254.62Z"/><polygon class="cls-19" points="246.36 233.68 248.93 231.37 248.87 235.87 246.36 233.68"/><polygon class="cls-19" points="297.68 232.73 295.21 230.52 294.74 235.2 297.68 232.73"/></g></svg>