<svg xmlns="http://www.w3.org/2000/svg" xmlns:xlink="http://www.w3.org/1999/xlink" viewBox="0 0 256 256"><defs><style>.cls-1{fill:#fff;}.cls-2{fill:url(#linear-gradient);}.cls-3{mask:url(#mask);}.cls-4{fill:url(#linear-gradient-2);}.cls-5{fill:#3a3a3a;}</style><linearGradient id="linear-gradient" x1="72.57" y1="32" x2="183.43" y2="224" gradientUnits="userSpaceOnUse"><stop offset="0" stop-color="#c8c8c8"/><stop offset="1" stop-color="#969696"/></linearGradient><mask id="mask" x="0" y="0" width="256" height="256" maskUnits="userSpaceOnUse"><path class="cls-1" d="M128,11.55,228.85,69.77V186.23L128,244.45,27.15,186.23V69.77L128,11.55M128,0,17.15,64V192L128,256l110.85-64V64L128,0Z"/></mask><linearGradient id="linear-gradient-2" x1="429.5" y1="302.49" x2="173.5" y2="46.49" gradientTransform="translate(-173.5 -46.49)" gradientUnits="userSpaceOnUse"><stop offset="0" stop-color="lime"/><stop offset="1" stop-color="#baffba"/></linearGradient></defs><title>Hex</title><g id="GitHub"><g id="Base_Hex" data-name="Base Hex"><polygon class="cls-2" points="128 0 17.15 64 17.15 192 128 256 238.85 192 238.85 64 128 0"/></g><g class="cls-3"><g id="Outline"><rect class="cls-4" width="256" height="256"/></g></g><path class="cls-5" d="M128,60.67a67.52,67.52,0,0,1,34.64,9.26A68.71,68.71,0,0,1,187.76,95a69.27,69.27,0,0,1-3.91,75.22,67.6,67.6,0,0,1-34,24.94,4,4,0,0,1-3.59-.63,3.52,3.52,0,0,1-1.17-2.7q0-.27,0-6.88t0-12.09q0-8.72-4.67-12.76a61.55,61.55,0,0,0,9.21-1.62,36.71,36.71,0,0,0,8.45-3.5,25.12,25.12,0,0,0,7.28-6,27.81,27.81,0,0,0,4.76-9.44A45.31,45.31,0,0,0,172,126.09a26.62,26.62,0,0,0-7.1-18.51q3.33-8.18-.72-18.33-2.52-.81-7.28,1a48.4,48.4,0,0,0-8.27,4l-3.42,2.16a64.88,64.88,0,0,0-34.51,0q-1.44-1-3.82-2.43a53.88,53.88,0,0,0-7.5-3.46q-5.12-2-7.64-1.21-4,10.16-.72,18.33A26.62,26.62,0,0,0,84,126.09a44.86,44.86,0,0,0,1.84,13.48A28.94,28.94,0,0,0,90.52,149a24.21,24.21,0,0,0,7.23,6,36.71,36.71,0,0,0,8.45,3.5,61.55,61.55,0,0,0,9.21,1.62q-3.5,3.24-4.4,9.26a17.82,17.82,0,0,1-4,1.35,25.43,25.43,0,0,1-5.12.45A10.59,10.59,0,0,1,96,169.27a15.84,15.84,0,0,1-5-5.62A14.5,14.5,0,0,0,86.62,159a13.12,13.12,0,0,0-4.45-2.16l-1.8-.27a5.83,5.83,0,0,0-2.61.4q-.72.4-.45,1a5,5,0,0,0,.81,1.26,6.57,6.57,0,0,0,1.17,1.08l.63.45a10.85,10.85,0,0,1,3.91,3.42,22.48,22.48,0,0,1,2.83,4.58l.9,2.07a11.39,11.39,0,0,0,4,5.53,14,14,0,0,0,6,2.7,38.38,38.38,0,0,0,6.25.63,26.44,26.44,0,0,0,5-.31l2.07-.36q0,3.42,0,8t0,4.9a3.52,3.52,0,0,1-1.17,2.7,4,4,0,0,1-3.59.63A69.05,69.05,0,0,1,59,129.69,67.52,67.52,0,0,1,68.24,95,68.71,68.71,0,0,1,93.36,69.92,67.52,67.52,0,0,1,128,60.67ZM85.13,159.79q.27-.63-.63-1.08-.9-.27-1.17.18-.27.63.63,1.08T85.13,159.79Zm2.79,3.06q.63-.45-.18-1.44-.9-.81-1.44-.27t.18,1.44Q87.38,163.48,87.92,162.85Zm2.7,4q.81-.63,0-1.71t-1.53-.54q-.81.45,0,1.62T90.61,166.89Zm3.77,3.77q.72-.72-.36-1.71t-1.8-.27q-.81.72.36,1.71T94.39,170.67Zm5.12,2.25q.27-1-1.17-1.44t-1.71.63q-.36,1,1.17,1.35Q99.15,174,99.51,172.91Zm5.66.45q0-1.17-1.53-1-1.44,0-1.44,1,0,1.17,1.53,1Q105.17,174.35,105.17,173.36Zm5.21-.9q-.18-1-1.62-.81T107.51,173q.18,1.08,1.62.72T110.39,172.46Z"/></g></svg>