<svg xmlns="http://www.w3.org/2000/svg" xmlns:xlink="http://www.w3.org/1999/xlink" viewBox="0 0 665.1 665.1"><defs><style>.cls-1{fill:#fff;}.cls-2{mask:url(#mask);}.cls-3{opacity:0.75;}</style><mask id="mask" x="-0.05" y="12.5" width="665.1" height="640" maskUnits="userSpaceOnUse"><polygon class="cls-1" points="115.8 585.61 115.8 457.63 4.95 393.66 4.95 271.44 115.8 207.41 115.8 79.39 221.65 18.27 332.5 82.27 443.35 18.27 549.2 79.39 549.2 207.41 660.05 271.44 660.05 393.66 549.2 457.64 549.2 585.61 443.35 646.73 332.5 582.73 221.65 646.73 115.8 585.61"/><path d="M443.35,24,544.2,82.27v128l5,2.89,105.85,61.14V390.78L549.2,451.86l-5,2.89v128L443.35,641,337.5,579.84l-5-2.89-5,2.89L221.65,641,120.8,582.73v-128l-5-2.89L9.95,390.77V274.32L115.8,213.18l5-2.89v-128L221.65,24,327.5,85.16l5,2.89,5-2.89L443.35,24m0-11.55L332.5,76.5l-110.85-64L110.8,76.5v128l-110.85,64v128l110.85,64v128l110.85,64,110.85-64,110.85,64,110.85-64v-128l110.85-64v-128l-110.85-64V76.5l-110.85-64Z"/></mask></defs><title>Hex</title><g id="Overlay_Hex_Size_3" data-name="Overlay Hex Size 3"><g class="cls-2"><g class="cls-3"><polygon class="cls-1" points="554.2 204.53 554.2 76.5 443.35 12.5 332.5 76.5 221.65 12.5 110.8 76.5 110.8 204.53 -0.05 268.55 -0.05 396.55 110.8 460.51 110.8 588.5 221.65 652.5 332.5 588.5 443.35 652.5 554.2 588.5 554.2 460.52 665.05 396.55 665.05 268.55 554.2 204.53"/></g></g></g></svg>