<svg xmlns="http://www.w3.org/2000/svg" xmlns:xlink="http://www.w3.org/1999/xlink" viewBox="0 0 665.1 665.1"><defs><style>.cls-1{fill:#fff;}.cls-10,.cls-11,.cls-2,.cls-8,.cls-9{fill:none;}.cls-3{fill:#4dbf4d;}.cls-4{clip-path:url(#clip-path);}.cls-5{fill:#338033;}.cls-6{fill:#004923;}.cls-7{fill:#006e34;}.cls-8{stroke:#fff;}.cls-10,.cls-11,.cls-8,.cls-9{stroke-miterlimit:10;}.cls-11,.cls-8{stroke-width:5px;}.cls-10,.cls-11,.cls-9{stroke:#bfbfbf;}.cls-9{stroke-width:12px;}.cls-10{stroke-width:7px;}.cls-12{mask:url(#mask);}.cls-13{fill:url(#linear-gradient);}</style><clipPath id="clip-path"><polygon class="cls-2" points="554.2 204.53 554.2 76.5 443.35 12.5 332.5 76.5 221.65 12.5 110.8 76.5 110.8 204.53 -0.05 268.55 -0.05 396.55 110.8 460.51 110.8 588.5 221.65 652.5 332.5 588.5 443.35 652.5 554.2 588.5 554.2 460.52 665.05 396.55 665.05 268.55 554.2 204.53"/></clipPath><mask id="mask" x="-0.05" y="0" width="665.1" height="665.05" maskUnits="userSpaceOnUse"><path class="cls-1" d="M221.65,24,327.5,85.16l5,2.89,5-2.89L443.35,24,544.2,82.27v128l5,2.89,105.85,61.14V390.78L549.2,451.86l-5,2.89v128L443.35,641,337.5,579.84l-5-2.89-5,2.89L221.65,641,120.8,582.73v-128l-5-2.89L9.95,390.77V274.32L115.8,213.18l5-2.89v-128L221.65,24M443.35,12.5,332.5,76.5l-110.85-64L110.8,76.5v128l-110.85,64v128l110.85,64v128l110.85,64,110.85-64,110.85,64,110.85-64v-128l110.85-64v-128l-110.85-64V76.5l-110.85-64Z"/></mask><linearGradient id="linear-gradient" x1="1006.05" y1="756.42" x2="341" y2="91.37" gradientTransform="translate(-341 -91.37)" gradientUnits="userSpaceOnUse"><stop offset="0" stop-color="lime"/><stop offset="1" stop-color="#baffba"/></linearGradient></defs><title>Hex</title><g id="Resume"><polygon class="cls-3" points="554.2 204.53 554.2 76.5 443.35 12.5 332.5 76.5 221.65 12.5 110.8 76.5 110.8 204.53 -0.05 268.55 -0.05 396.55 110.8 460.51 110.8 588.5 221.65 652.5 332.5 588.5 443.35 652.5 554.2 588.5 554.2 460.52 665.05 396.55 665.05 268.55 554.2 204.53"/><g class="cls-4"><polygon class="cls-5" points="447.18 637.81 232.39 468.67 433.11 195.87 654.51 370.22 654.51 637.81 447.18 637.81"/></g><path class="cls-6" d="M332.53,190.58h85.65a21,21,0,0,1,21,21V453.42a21,21,0,0,1-21,21H332.53"/><path class="cls-7" d="M332.53,474.42h-85.7a21,21,0,0,1-21-21V211.58a21,21,0,0,1,21-21h85.7"/><circle class="cls-8" cx="289.48" cy="234.82" r="18.07"/><path class="cls-8" d="M276.24,247.1l-13.06,27.84a6.61,6.61,0,0,0,6,9.42h40.19a6.61,6.61,0,0,0,6-9.34L302.72,247.1"/><line class="cls-9" x1="412.85" y1="230.2" x2="337.53" y2="230.2"/><line class="cls-10" x1="337.53" y1="247.89" x2="387.51" y2="247.89"/><line class="cls-10" x1="399.51" y1="261.14" x2="337.53" y2="261.14"/><line class="cls-10" x1="337.53" y1="274.39" x2="381.51" y2="274.39"/><line class="cls-11" x1="411.18" y1="309.14" x2="332.53" y2="309.14"/><line class="cls-8" x1="332.53" y1="309.14" x2="253.68" y2="309.14"/><line class="cls-11" x1="332.53" y1="324.15" x2="411.18" y2="324.15"/><line class="cls-8" x1="332.53" y1="324.15" x2="253.68" y2="324.15"/><line class="cls-8" x1="332.53" y1="339.16" x2="253.68" y2="339.16"/><line class="cls-11" x1="411.18" y1="339.16" x2="332.53" y2="339.16"/><line class="cls-11" x1="332.53" y1="354.18" x2="411.18" y2="354.18"/><line class="cls-8" x1="332.53" y1="354.18" x2="253.68" y2="354.18"/><line class="cls-8" x1="332.53" y1="369.19" x2="253.68" y2="369.19"/><line class="cls-11" x1="411.18" y1="369.19" x2="332.53" y2="369.19"/><line class="cls-11" x1="332.53" y1="384.2" x2="411.18" y2="384.2"/><line class="cls-8" x1="332.53" y1="384.2" x2="253.68" y2="384.2"/><line class="cls-11" x1="411.18" y1="399.21" x2="332.53" y2="399.21"/><line class="cls-8" x1="332.53" y1="399.21" x2="253.68" y2="399.21"/><line class="cls-8" x1="332.53" y1="414.22" x2="253.68" y2="414.22"/><line class="cls-11" x1="332.53" y1="414.22" x2="411.18" y2="414.22"/><line class="cls-11" x1="411.18" y1="430.24" x2="332.53" y2="430.24"/><line class="cls-8" x1="332.53" y1="430.24" x2="253.68" y2="430.24"/><line class="cls-8" x1="253.68" y1="445.25" x2="332.53" y2="445.25"/><line class="cls-11" x1="332.53" y1="445.25" x2="411.18" y2="445.25"/><g class="cls-12"><g id="Outline"><rect class="cls-13" width="665.05" height="665.05"/></g></g></g></svg>