<svg xmlns="http://www.w3.org/2000/svg" xmlns:xlink="http://www.w3.org/1999/xlink" viewBox="0 0 448 448"><defs><style>.cls-1{fill:#fff;}.cls-2{fill:url(#linear-gradient);}.cls-3{mask:url(#mask);}.cls-4{fill:url(#linear-gradient-2);}.cls-5{fill:blue;}.cls-6{fill:#0a0063;}.cls-7{fill:red;}.cls-8{fill:#660002;}.cls-9{fill:#999;}.cls-10{fill:#4d4d4d;}</style><linearGradient id="linear-gradient" x1="387.14" y1="442.56" x2="60.86" y2="116.29" gradientUnits="userSpaceOnUse"><stop offset="0" stop-color="#3591ff"/><stop offset="1" stop-color="#cde9ff"/></linearGradient><mask id="mask" x="0" y="0" width="448" height="448" maskUnits="userSpaceOnUse"><path class="cls-1" d="M224,11.55,324.85,69.77v128l5,2.89,105.8,61.11,0,116.45L334.85,436.45,229,375.34l-5-2.89-5,2.89L113.15,436.45,12.3,378.23V261.77l105.85-61.11,5-2.89v-128L224,11.55M224,0,113.15,64V192L2.3,256V384l110.85,64L224,384l110.85,64L445.7,384l-.05-128-110.8-64V64L224,0Z"/></mask><linearGradient id="linear-gradient-2" x1="448" y1="448" x2="0" gradientUnits="userSpaceOnUse"><stop offset="0" stop-color="red"/><stop offset="1" stop-color="#ffb4b4"/></linearGradient></defs><title>Hex</title><g id="SpaceJousting"><polygon class="cls-2" points="445.65 256 334.85 192 334.85 64 224 0 113.15 64 113.15 192 2.3 256 2.3 384 113.15 448 224 384 334.85 448 445.7 384 445.65 256"/><g class="cls-3"><g id="Outline"><rect class="cls-4" width="448" height="448"/></g></g><polygon class="cls-5" points="246.19 226.18 313.4 259.94 279.61 267.69 264.81 299.05 246.19 226.18"/><path class="cls-6" d="M253.75,235.57l45,22.6-17.89,4.1-4.73,1.09L274,267.76l-7.83,16.6-12.46-48.79m-15.12-18.79,24.77,97L283.09,272l45-10.32-89.43-44.92Z"/><polygon class="cls-7" points="256.56 146.9 258.72 181.5 287.25 201.2 212.32 207.73 256.56 146.9"/><path class="cls-8" d="M252.44,161.07l1.14,18.32.3,4.85,4,2.76L273,197.43l-50.16,4.37,29.62-40.72m8.25-28.35-58.86,80.94,99.7-8.68-38-26.21-2.87-46Z"/><polygon class="cls-9" points="150.04 316.11 131.69 297.45 125.12 272.11 132.1 246.88 150.76 228.53 176.09 221.96 201.32 228.94 219.68 247.6 226.25 272.94 219.26 298.16 200.61 316.52 175.27 323.09 150.04 316.11"/><path class="cls-10" d="M176.05,227.14l22.64,6.27,16.48,16.75,5.9,22.74-6.27,22.64L198.05,312l-22.74,5.9-22.64-6.27L136.19,294.9l-5.9-22.74,6.27-22.64L153.31,233l22.74-5.9m.08-10.35L148.2,224l-20.57,20.24-7.7,27.81L127.18,300l20.24,20.57,27.81,7.7L203.16,321l20.57-20.24,7.7-27.81L224.18,245l-20.24-20.57-27.81-7.7Z"/></g></svg>