<svg xmlns="http://www.w3.org/2000/svg" xmlns:xlink="http://www.w3.org/1999/xlink" viewBox="0 0 256 256"><defs><style>.cls-1{fill:#fff;}.cls-2{fill:url(#linear-gradient);}.cls-3{mask:url(#mask);}.cls-4{fill:url(#linear-gradient-2);}.cls-5{fill:#3a3a3a;}</style><linearGradient id="linear-gradient" x1="72.57" y1="32" x2="183.43" y2="224" gradientUnits="userSpaceOnUse"><stop offset="0" stop-color="#c8c8c8"/><stop offset="1" stop-color="#969696"/></linearGradient><mask id="mask" x="0" y="0" width="256" height="256" maskUnits="userSpaceOnUse"><path class="cls-1" d="M128,11.55,228.85,69.77V186.23L128,244.45,27.15,186.23V69.77L128,11.55M128,0,17.15,64V192L128,256l110.85-64V64L128,0Z"/></mask><linearGradient id="linear-gradient-2" x1="429.5" y1="302.49" x2="173.5" y2="46.49" gradientTransform="translate(-173.5 -46.49)" gradientUnits="userSpaceOnUse"><stop offset="0" stop-color="lime"/><stop offset="1" stop-color="#baffba"/></linearGradient></defs><title>Hex</title><g id="LinkedIn"><g id="Base_Hex" data-name="Base Hex"><polygon class="cls-2" points="128 0 17.15 64 17.15 192 128 256 238.85 192 238.85 64 128 0"/></g><g class="cls-3"><g id="Outline"><rect class="cls-4" width="256" height="256"/></g></g><path class="cls-5" d="M96.89,108.92V182.5H72.39V108.92ZM98.45,86.2a11.75,11.75,0,0,1-3.75,9.06,14,14,0,0,1-10.06,3.64h-.15a13.4,13.4,0,0,1-9.8-3.64A12.17,12.17,0,0,1,71,86.2a12,12,0,0,1,3.82-9.1,14,14,0,0,1,10-3.6,13.58,13.58,0,0,1,9.88,3.6A12.38,12.38,0,0,1,98.45,86.2ZM185,140.33V182.5H160.6V143.15q0-7.8-3-12.21t-9.39-4.42a12,12,0,0,0-7.83,2.56,15.79,15.79,0,0,0-4.71,6.35,18,18,0,0,0-.82,6V182.5H110.4q.15-29.63.15-48t-.07-22l-.07-3.56h24.43v10.69h-.15a32.32,32.32,0,0,1,3-4.16,31.66,31.66,0,0,1,4.2-3.86,19.29,19.29,0,0,1,6.46-3.23,29.43,29.43,0,0,1,8.5-1.15q12.7,0,20.42,8.43T185,140.33Z"/></g></svg>