<svg xmlns="http://www.w3.org/2000/svg" xmlns:xlink="http://www.w3.org/1999/xlink" viewBox="0 0 665.1 665.1"><defs><style>.cls-1,.cls-3{fill:#fff;}.cls-2{fill:none;}.cls-3{stroke:#e0e0e0;stroke-miterlimit:10;stroke-width:0.5px;}.cls-4{fill:url(#linear-gradient);}.cls-5{mask:url(#mask);}.cls-6{fill:url(#linear-gradient-2);}.cls-7{fill:url(#linear-gradient-3);}.cls-8{fill:url(#New_Pattern_2);}</style><linearGradient id="linear-gradient" x1="571.35" y1="571.35" x2="93.65" y2="93.65" gradientUnits="userSpaceOnUse"><stop offset="0" stop-color="#78f400"/><stop offset="1" stop-color="#f2ffc2"/></linearGradient><mask id="mask" x="-0.05" y="0" width="665.15" height="665.1" maskUnits="userSpaceOnUse"><path class="cls-1" d="M443.35,24,544.2,82.27v128l5,2.89,105.85,61.14V390.78L549.2,451.86l-5,2.89v128L443.35,641,337.5,579.84l-5-2.89-5,2.89L221.65,641,120.8,582.73v-128l-5-2.89L9.95,390.77V274.32L115.8,213.18l5-2.89v-128L221.65,24,327.5,85.16l5,2.89,5-2.89L443.35,24m0-11.55L332.5,76.5l-110.85-64L110.8,76.5v128l-110.85,64v128l110.85,64v128l110.85,64,110.85-64,110.85,64,110.85-64v-128l110.85-64v-128l-110.85-64V76.5l-110.85-64Z"/></mask><linearGradient id="linear-gradient-2" x1="523.23" y1="1194.57" x2="-141.87" y2="529.47" gradientTransform="translate(141.87 -529.47)" gradientUnits="userSpaceOnUse"><stop offset="0" stop-color="#ff0"/><stop offset="1" stop-color="#ffffb4"/></linearGradient><linearGradient id="linear-gradient-3" x1="211.87" y1="211.82" x2="453.23" y2="453.18" gradientUnits="userSpaceOnUse"><stop offset="0" stop-color="#ffc6e5"/><stop offset="1" stop-color="#fff"/></linearGradient><pattern id="New_Pattern_2" data-name="New Pattern 2" width="23.67" height="23.67" patternTransform="translate(10.17 2.11) scale(0.6)" patternUnits="userSpaceOnUse" viewBox="0 0 23.67 23.67"><rect class="cls-2" width="23.67" height="23.67"/><rect class="cls-3" x="0.25" y="0.25" width="23.17" height="23.17"/></pattern></defs><title>Hex</title><g id="VisionMotion"><polygon class="cls-4" points="554.2 204.53 554.2 76.5 443.35 12.5 332.5 76.5 221.65 12.5 110.8 76.5 110.8 204.53 -0.05 268.55 -0.05 396.55 110.8 460.51 110.8 588.5 221.65 652.5 332.5 588.5 443.35 652.5 554.2 588.5 554.2 460.52 665.05 396.55 665.05 268.55 554.2 204.53"/><g class="cls-5"><g id="Outline"><rect class="cls-6" width="665.1" height="665.1"/></g></g><circle class="cls-7" cx="332.55" cy="332.5" r="170.67"/><path d="M332.55,265.07c-43.9,0-85.15,27.12-102.73,67.43,18.65,40.15,57.18,67.43,102.73,67.43,43.9,0,85.15-27.12,102.73-67.43C416.63,292.35,378.1,265.07,332.55,265.07Z"/><circle class="cls-8" cx="332.55" cy="332.5" r="51.69"/><path d="M355.58,322.52a7.67,7.67,0,0,1-4.36-14A30.69,30.69,0,0,0,312.3,356a15.27,15.27,0,1,1,27.12,6.86,30.7,30.7,0,0,0,21.25-42.24A7.64,7.64,0,0,1,355.58,322.52Z"/></g></svg>