<svg xmlns="http://www.w3.org/2000/svg" xmlns:xlink="http://www.w3.org/1999/xlink" viewBox="0 0 554.25 554.25"><defs><style>.cls-1{fill:url(#linear-gradient);}.cls-2{fill:url(#linear-gradient-2);}.cls-3,.cls-4,.cls-5{fill:none;stroke-miterlimit:10;}.cls-3{stroke:aqua;stroke-width:5.49px;}.cls-4{stroke:#2e3192;stroke-width:2.74px;}.cls-5{stroke:#29abe2;stroke-width:3.58px;}.cls-6{fill:#0071bc;}.cls-7{fill:#009245;}.cls-8{fill:#006837;}</style><linearGradient id="linear-gradient" x1="58.56" y1="495.69" x2="495.69" y2="58.56" gradientTransform="matrix(-1, 0, 0, 1, 554.25, 0)" gradientUnits="userSpaceOnUse"><stop offset="0" stop-color="#c503ff"/><stop offset="1" stop-color="#f3cdff"/></linearGradient><linearGradient id="linear-gradient-2" x1="495.69" y1="495.69" x2="58.56" y2="58.56" gradientUnits="userSpaceOnUse"><stop offset="0" stop-color="#ff0"/><stop offset="1" stop-color="#ffffb4"/></linearGradient></defs><title>Hex</title><g id="ThinkTank"><polygon class="cls-1" points="110.9 309.13 0 245.13 0 117.13 110.85 53.13 221.7 117.13 332.55 53.13 443.4 117.13 443.4 245.13 554.25 309.13 554.25 437.13 443.4 501.13 332.55 437.13 221.7 501.13 110.85 437.13 110.9 309.13"/><path class="cls-2" d="M110.85,64.67,216.7,125.79l5,2.89,5-2.89L332.55,64.67,433.4,122.9v128l5,2.89L544.25,314.9V431.35L443.4,489.58,337.55,428.46l-5-2.89-5,2.89L221.7,489.58,120.85,431.35l0-122.22v-5.78l-5-2.89L10,239.35V122.9L110.85,64.67m221.7-11.55-110.85,64-110.85-64L0,117.13v128l110.9,64-.05,128,110.85,64,110.85-64,110.85,64,110.85-64v-128l-110.85-64v-128l-110.85-64Z"/><path class="cls-3" d="M334,231.2c3.65,15.95,7.3,31.9,14.6,31.9s11-15.95,14.6-31.89"/><path class="cls-3" d="M275.59,231.21c3.65,15.95,7.3,31.9,14.6,31.9s10.95-15.95,14.6-31.9"/><line class="cls-4" x1="273.32" y1="231.63" x2="395.36" y2="231.63"/><path class="cls-5" d="M279.54,230.26c5.94-7.43,11.92-14.47,18.47-14.63,13.88-.33,2.57,30.92,16.45,30.59s25.18-31.58,39.05-31.91,2.58,30.92,16.45,30.59c6.55-.16,12.53-7.2,18.47-14.63l3.17-4.34"/><path class="cls-3" d="M304.79,229.32c3.65-15.95,7.3-31.9,14.6-31.9s10.95,15.95,14.6,31.89"/><path class="cls-3" d="M363.19,229.32c3.65-15.95,7.3-31.9,14.6-31.9s11,15.95,14.6,31.9"/><line class="cls-4" x1="273.32" y1="228.93" x2="395.36" y2="228.93"/><line class="cls-4" x1="273.32" y1="231.63" x2="288.07" y2="231.63"/><path class="cls-6" d="M273.83,226.56a11.16,11.16,0,0,1-3,2.29,11.38,11.38,0,0,1-5.77,1.24,14.78,14.78,0,0,1-4.15-.61,11.61,11.61,0,0,1-5.47,7.38,12.79,12.79,0,0,1-6.18,1.45,19.39,19.39,0,0,1-6.22-1.06l0-.11-.06.05a14.42,14.42,0,0,1-9.37,3,25,25,0,0,1-3.75-.3c-3.8-.58-6.94-3-9.13-5.24v23.63a11.71,11.71,0,0,0,4.16,5.78c2.32,1.59,5.31,2,8.9,1.33a12.8,12.8,0,0,1,2.25-7.8l1.89,1.19c-5.07,8.1,1.43,12.48,1.71,12.67l-1.21,1.88a11.59,11.59,0,0,1-4.23-5.73,18.54,18.54,0,0,1-3.56.37,11.74,11.74,0,0,1-9.91-4.88v2c0,24.05,26,19.43,31.65,8.56l.16,0a13.4,13.4,0,0,0,1.95-7.29c-.18-3.52-2.06-6.86-5.59-9.93a13.47,13.47,0,0,1-7.68,4.69l-.55-2.17c10.32-2.61,8.58-12.27,8.5-12.68l2.19-.43a15.11,15.11,0,0,1-1.26,8.67c4.18,3.55,6.41,7.5,6.62,11.75a15.09,15.09,0,0,1-1.63,7.37c4.53-.65,10-4.41,12.15-10.51h0c0-.06,2.21-6.15-.58-11.34-1.79-3.34-5.27-5.65-10.33-6.86l.52-2.17c5.72,1.36,9.69,4.05,11.79,8a14.39,14.39,0,0,1,1.59,5.32c2.32-2.37,5.3-6.63,3-10.73C280.11,239.82,278.13,230.05,273.83,226.56Z"/><path class="cls-6" d="M244.67,195.41c-1.59,4.72-5.48,7.52-7.63,8.76a19.66,19.66,0,0,1,1.9,8.17,12.7,12.7,0,0,1,7.89,2.56l-1.26,1.84c-7.89-5.39-12.53.92-12.73,1.2L231,216.66a11.63,11.63,0,0,1,5.69-3.93c0-1.9-.38-7.58-4.17-10.81-2.7-2.3-6.66-3-11.78-2v31.31c1.84,2.3,5.25,5.79,9.47,6.43,4.82.73,8.65,0,11.36-2.21,3.92-3.17,4.28-8.4,4.28-8.45l2.23.13a15.6,15.6,0,0,1-3.33,8.3c1.88.51,6.18,1.33,9.6-.56a9.61,9.61,0,0,0,4.46-6.3,9.44,9.44,0,0,1-2.37-1.87c-3.24-3.53-2.84-8.49-2.82-8.7l2.23.19s-.32,4.22,2.26,7a7.18,7.18,0,0,0,1.65,1.31l.83.36s5.09,2.15,9.19,0a7.92,7.92,0,0,0,4.14-4.92,10,10,0,0,0,.36-2.07c.09-3.55-1-7.43-4.6-8.39,2.06-7.35-2.92-15-9.12-16.48,1.27,4.31,1,8-.73,10.88-3.2,5.29-10.17,6-10.47,6.07l-.22-2.22c.06,0,6.18-.68,8.79-5,1.52-2.53,1.18-5.27.22-9.94-.17,0,.17,0,0,0-.48-5-7-11.47-14.07-10A15.21,15.21,0,0,1,244.67,195.41Z"/><path class="cls-6" d="M234,200.23a12,12,0,0,1,1.88,2c1.84-1.06,5.33-3.53,6.68-7.58,1.11-3.32.6-7.09-1.53-11.2-1.71-2.77-5.32-6.24-10.52-6.24-6.55,0-9.75,5.36-9.75,12.29v8.15C226.38,196.68,230.83,197.53,234,200.23Z"/><path class="cls-6" d="M173.09,222.88a11.07,11.07,0,0,1,7.2,5.37,10,10,0,0,1,1.21,3.35c3.17-.14,5.83-1.34,7.11-3.26,1.08-1.63,1.11-3.66.07-5.88l-.63-1.34,1.46-.23c2.76-.44,6.18-2.5,6.86-4.85,1-3.52.37-6.9-2.12-10.85a12,12,0,0,1-2.09.85c-3.44,1-7.14.4-11-1.85-1.12,2-3.87,5.89-8.47,7.11a15.19,15.19,0,0,1-3.9.5,16.5,16.5,0,0,1-2.23-.16c-4.73,1.64-4.79,8.8-3.49,12.47A18,18,0,0,1,173.09,222.88Z"/><path class="cls-6" d="M172.11,209.12c5-1.33,7.56-6.92,7.58-7l.53-1.2,1.1.72c3.67,2.4,7.1,3.15,10.19,2.24,4.6-1.36,7.24-6.06,7.88-7.32a16.64,16.64,0,0,1-1.95-5l2.18-.51c.84,3.62,2.38,6,4.58,7.05,3.16,1.52,6.78-.16,6.81-.18l1,2a12.1,12.1,0,0,1-4.81,1,9,9,0,0,1-3.92-.85,8.56,8.56,0,0,1-2.35-1.67,18.59,18.59,0,0,1-4.75,5.5c1.93,3.05,3.89,7.42,2.37,12.67-.73,2.52-3.33,4.6-6.07,5.7,4.57,3,8.44,4.06,11.52,3,4-1.36,5.4-5.88,5.41-5.92l2.14.63c-.07.23-1.71,5.66-6.81,7.4a9.92,9.92,0,0,1-3.23.52c-2.95,0-6.26-1.18-9.89-3.54a7.29,7.29,0,0,1-1.12,5.11,9.44,9.44,0,0,1-5.17,3.64,12.37,12.37,0,0,1,11.15,8.31,13.24,13.24,0,0,1,7.13-7.22,14.51,14.51,0,0,1,12.3.62v-45.4c0-6.92-3.2-12.29-9.75-12.29s-10.57,5.51-11.47,8.19c-7.89-3.42-15.64,4-15.64,9.38-6.82-.68-13.26,6.75-12.47,14.53A13.3,13.3,0,0,0,172.11,209.12Z"/><path class="cls-6" d="M204.44,236.37a10.83,10.83,0,0,0-6.57,8.4l-.19,1.4-1.32-.51a11.2,11.2,0,0,0-8.67.45c-3.44,1.87-5.9,6.35-3.67,12,4-1,8,.6,11,4.47l0,0c3.71-2.88,8.61-2.66,13.44.62L207.27,265c-4-2.7-7.92-3-10.82-.7a8.29,8.29,0,0,0-2.69,9.13l-2.1.76a10.59,10.59,0,0,1,1.8-10c-2.54-3.33-5.78-4.73-9-3.85a8.29,8.29,0,0,0-6,7.39l-2.23-.11a10.59,10.59,0,0,1,5.74-8.68c-2.58-6.62.26-12.34,4.69-14.75a13.48,13.48,0,0,1,7.93-1.25c-2.76-7.93-9.92-8-14.14-7.21l-1.87.34.62-1.8a6.2,6.2,0,0,0-.81-4.87,8.8,8.8,0,0,0-5.71-4.29c-3.76-.78-7.66.56-10,1.67-4.16,3.64-6,13.18.78,18.57-3.13,5.66,3.72,11.62,5.06,12.51.15,10.72,10,16.83,15.79,15.79,5.66,10.87,31.65,15.49,31.65-8.56V237.47A12.58,12.58,0,0,0,204.44,236.37Z"/><path class="cls-7" d="M321,377H203.85c-7.14,0-27.79-8.25-27.79-21V341c0-10,11.47-14.21,17.61-14.21H341c1.1,0,10.82.17,15,6.16,4.43,6.28,6.6,14.58-7.44,32.64l-.33.42-.44.29C347.2,366.75,331.4,377,321,377ZM193.66,333.17c-2.38,0-11.24,2-11.24,7.85v15c0,7.36,15.75,14.64,21.43,14.64H321c6.86,0,18.5-6.52,23-9.38,12.69-16.48,9.1-21.58,6.94-24.64-2-2.8-7.92-3.45-9.85-3.46Z"/><path class="cls-8" d="M193.67,333.17c-2.38,0-11.24,2-11.24,7.85v15c0,7.36,15.75,14.64,21.43,14.64H321c6.86,0,18.5-6.52,23-9.38,12.69-16.48,9.1-21.58,6.94-24.64-2-2.8-7.92-3.45-9.85-3.46Z"/><circle class="cls-7" cx="227.68" cy="351.91" r="19.31"/><circle class="cls-7" cx="265.65" cy="351.91" r="19.31"/><circle class="cls-7" cx="303.84" cy="351.91" r="19.31"/><path class="cls-7" d="M192.46,327.6s5.47-23.55,12.09-23.55H306.38c9.84,0,31.56,23.55,31.56,23.55Z"/><path class="cls-7" d="M210.07,305s9.12-45,31.4-45h22.28c22.28,0,30.76,45,30.76,45Z"/><path class="cls-7" d="M284,277.13c.71,0,77.08-1.84,77.08-1.84s4.81-5.37,7.64-5.52,11.74,4.81,11.74,4.81v20.65s-8.91,3.82-11.6,4.1-6.51-5.09-6.51-5.09l-72-1.84s-1.12-3.36-2.9-7.64C285.78,280.78,284,277.13,284,277.13Z"/><path class="cls-7" d="M208.05,345.7l-3.43-1.7a1.25,1.25,0,0,1-.63-1.53l1.23-3.63a1.25,1.25,0,0,0-1.59-1.59L200,338.48a1.25,1.25,0,0,1-1.53-.63l-1.69-3.44a1.25,1.25,0,0,0-2.25,0l-1.7,3.43a1.25,1.25,0,0,1-1.53.63l-3.63-1.23a1.25,1.25,0,0,0-1.59,1.59l1.23,3.63a1.25,1.25,0,0,1-.63,1.53l-3.44,1.69a1.25,1.25,0,0,0,0,2.25l3.43,1.7a1.25,1.25,0,0,1,.63,1.53l-1.23,3.63a1.25,1.25,0,0,0,1.59,1.59l3.63-1.23a1.25,1.25,0,0,1,1.53.63l1.69,3.44a1.25,1.25,0,0,0,2.25,0l1.7-3.43a1.25,1.25,0,0,1,1.53-.63l3.63,1.23a1.25,1.25,0,0,0,1.59-1.59L204,351.17a1.25,1.25,0,0,1,.63-1.53L208,348A1.25,1.25,0,0,0,208.05,345.7Zm-12.41,6.56a5.45,5.45,0,1,1,5.45-5.45A5.44,5.44,0,0,1,195.64,352.26Z"/><path class="cls-7" d="M349.87,346.06l-3.65-1.81a1.33,1.33,0,0,1-.67-1.63l1.31-3.86a1.33,1.33,0,0,0-1.69-1.69l-3.86,1.31a1.33,1.33,0,0,1-1.62-.67l-1.8-3.66a1.33,1.33,0,0,0-2.39,0l-1.81,3.65a1.33,1.33,0,0,1-1.63.67l-3.86-1.31a1.33,1.33,0,0,0-1.69,1.69l1.31,3.86a1.33,1.33,0,0,1-.67,1.62l-3.66,1.8a1.33,1.33,0,0,0,0,2.39l3.65,1.81a1.33,1.33,0,0,1,.67,1.63l-1.31,3.86a1.33,1.33,0,0,0,1.69,1.69L332,356.1a1.33,1.33,0,0,1,1.62.67l1.8,3.66a1.33,1.33,0,0,0,2.39,0l1.81-3.65a1.33,1.33,0,0,1,1.63-.67l3.86,1.31a1.33,1.33,0,0,0,1.69-1.69l-1.31-3.86a1.33,1.33,0,0,1,.67-1.62l3.66-1.8A1.33,1.33,0,0,0,349.87,346.06Zm-13.2,6.63a5.45,5.45,0,1,1,5.45-5.45A5.45,5.45,0,0,1,336.67,352.69Z"/></g></svg>