<svg xmlns="http://www.w3.org/2000/svg" xmlns:xlink="http://www.w3.org/1999/xlink" viewBox="0 0 256 256"><defs><style>.cls-1{fill:#fff;}.cls-2{fill:url(#linear-gradient);}.cls-3{mask:url(#mask);}.cls-4{fill:url(#linear-gradient-2);}.cls-5{fill:#3a3a3a;}</style><linearGradient id="linear-gradient" x1="72.57" y1="32" x2="183.43" y2="224" gradientUnits="userSpaceOnUse"><stop offset="0" stop-color="#c8c8c8"/><stop offset="1" stop-color="#969696"/></linearGradient><mask id="mask" x="0" y="0" width="256" height="256" maskUnits="userSpaceOnUse"><path class="cls-1" d="M128,11.55,228.85,69.77V186.23L128,244.45,27.15,186.23V69.77L128,11.55M128,0,17.15,64V192L128,256l110.85-64V64L128,0Z"/></mask><linearGradient id="linear-gradient-2" x1="429.5" y1="302.49" x2="173.5" y2="46.49" gradientTransform="translate(-173.5 -46.49)" gradientUnits="userSpaceOnUse"><stop offset="0" stop-color="lime"/><stop offset="1" stop-color="#baffba"/></linearGradient></defs><title>Hex</title><g id="Devpost"><g id="Base_Hex" data-name="Base Hex"><polygon class="cls-2" points="128 0 17.15 64 17.15 192 128 256 238.85 192 238.85 64 128 0"/></g><g class="cls-3"><g id="Outline"><rect class="cls-4" width="256" height="256"/></g></g><g id="_Group_" data-name="&lt;Group&gt;"><path id="_Path_" data-name="&lt;Path&gt;" class="cls-5" d="M124.58,104.6h-8.31v47.66h7.78c16.36,0,23.88-9.59,23.88-23.83C147.94,112.49,141.11,104.6,124.58,104.6Z"/><path id="_Compound_Path_" data-name="&lt;Compound Path&gt;" class="cls-5" d="M165.1,64.35H90.9L53.78,128.43,90.9,192.51H165.1l37.12-64.08Zm-41,103.27H100.91V89.24h24.25c22.29,0,38.82,10.64,38.82,39.19C164,155.86,144.13,167.62,124.05,167.62Z"/></g></g></svg>