<svg xmlns="http://www.w3.org/2000/svg" xmlns:xlink="http://www.w3.org/1999/xlink" viewBox="0 0 256 256"><defs><style>.cls-1{fill:#fff;}.cls-2{fill:none;}.cls-3{fill:#1a1a1a;}.cls-4{fill:url(#linear-gradient);}.cls-5{mask:url(#mask);}.cls-6{fill:url(#linear-gradient-2);}.cls-7{fill:url(#New_Pattern);}.cls-8{fill:#f7931e;}</style><linearGradient id="linear-gradient" x1="215.43" y1="215.43" x2="40.57" y2="40.57" gradientUnits="userSpaceOnUse"><stop offset="0" stop-color="#ed6300"/><stop offset="1" stop-color="#ffe5a2"/></linearGradient><mask id="mask" x="0" y="0" width="256" height="256" maskUnits="userSpaceOnUse"><path class="cls-1" d="M128,11.55,228.85,69.77V186.23L128,244.45,27.15,186.23V69.77L128,11.55M128,0,17.15,64V192L128,256l110.85-64V64L128,0Z"/></mask><linearGradient id="linear-gradient-2" x1="429.5" y1="302.49" x2="173.5" y2="46.49" gradientTransform="translate(-173.5 -46.49)" gradientUnits="userSpaceOnUse"><stop offset="0" stop-color="lime"/><stop offset="1" stop-color="#baffba"/></linearGradient><pattern id="New_Pattern" data-name="New Pattern" width="32" height="32" patternTransform="translate(96.06 19.57) scale(0.25)" patternUnits="userSpaceOnUse" viewBox="0 0 32 32"><rect class="cls-2" width="32" height="32"/><rect width="32" height="32"/><rect class="cls-3" x="9.96" y="8.58" width="23" height="23"/><rect class="cls-3" x="-22.04" y="8.58" width="23" height="23"/></pattern></defs><title>Hex</title><g id="Lightboard"><g id="Base_Hex" data-name="Base Hex"><polygon class="cls-4" points="128 0 17.15 64 17.15 192 128 256 238.85 192 238.85 64 128 0"/></g><g class="cls-5"><g id="Outline"><rect class="cls-6" width="256" height="256"/></g></g><rect class="cls-7" x="51.13" y="83.62" width="153.75" height="88.75"/><path d="M204.25,84.25v87.5H51.75V84.25h152.5M205.5,83H50.5v90h155V83Z"/><rect class="cls-8" x="61.07" y="93.17" width="5.75" height="5.75"/><rect class="cls-8" x="69.07" y="93.17" width="5.75" height="5.75"/><rect class="cls-8" x="76.64" y="93.15" width="5.75" height="5.75"/><rect class="cls-8" x="61.07" y="125.13" width="5.75" height="5.75"/><rect class="cls-8" x="69.07" y="125.13" width="5.75" height="5.75"/><rect class="cls-8" x="76.64" y="125.1" width="5.75" height="5.75"/><rect class="cls-8" x="61.07" y="157.08" width="5.75" height="5.75"/><rect class="cls-8" x="69.07" y="157.08" width="5.75" height="5.75"/><rect class="cls-8" x="76.64" y="157.06" width="5.75" height="5.75"/><rect class="cls-8" x="61.07" y="101.1" width="5.75" height="5.75"/><rect class="cls-8" x="61.07" y="109.23" width="5.75" height="5.75"/><rect class="cls-8" x="61.07" y="117.19" width="5.75" height="5.75"/><rect class="cls-8" x="76.64" y="133.12" width="5.75" height="5.75"/><rect class="cls-8" x="76.64" y="141.24" width="5.75" height="5.75"/><rect class="cls-8" x="76.64" y="149.21" width="5.75" height="5.75"/><rect class="cls-8" x="93.03" y="93.16" width="5.75" height="5.75"/><rect class="cls-8" x="101.16" y="93.16" width="5.75" height="5.75"/><rect class="cls-8" x="109.12" y="93.16" width="5.75" height="5.75"/><rect class="cls-8" x="101.16" y="101.09" width="5.75" height="5.75"/><rect class="cls-8" x="101.16" y="109.09" width="5.75" height="5.75"/><rect class="cls-8" x="101.16" y="117.09" width="5.75" height="5.75"/><rect class="cls-8" x="101.16" y="125.09" width="5.75" height="5.75"/><rect class="cls-8" x="101.04" y="133.09" width="5.75" height="5.75"/><rect class="cls-8" x="101.04" y="141.09" width="5.75" height="5.75"/><rect class="cls-8" x="101.04" y="149.09" width="5.75" height="5.75"/><rect class="cls-8" x="101.04" y="157.09" width="5.75" height="5.75"/><rect class="cls-8" x="165.07" y="93.17" width="5.75" height="5.75"/><rect class="cls-8" x="173.07" y="93.17" width="5.75" height="5.75"/><rect class="cls-8" x="181.07" y="93.17" width="5.75" height="5.75"/><rect class="cls-8" x="189.07" y="93.17" width="5.75" height="5.75"/><rect class="cls-8" x="165.07" y="125.1" width="5.75" height="5.75"/><rect class="cls-8" x="173.07" y="125.1" width="5.75" height="5.75"/><rect class="cls-8" x="181.07" y="125.1" width="5.75" height="5.75"/><rect class="cls-8" x="189.07" y="125.1" width="5.75" height="5.75"/><rect class="cls-8" x="165.07" y="133.1" width="5.75" height="5.75"/><rect class="cls-8" x="165.07" y="141.1" width="5.75" height="5.75"/><rect class="cls-8" x="165.07" y="149.1" width="5.75" height="5.75"/><rect class="cls-8" x="165.07" y="157.1" width="5.75" height="5.75"/><rect class="cls-8" x="165.07" y="101.17" width="5.75" height="5.75"/><rect class="cls-8" x="165.07" y="109.17" width="5.75" height="5.75"/><rect class="cls-8" x="165.07" y="117.04" width="5.75" height="5.75"/><rect class="cls-8" x="189.07" y="101.1" width="5.75" height="5.75"/><rect class="cls-8" x="189.07" y="109.1" width="5.75" height="5.75"/><rect class="cls-8" x="189.07" y="116.98" width="5.75" height="5.75"/><rect class="cls-8" x="125.12" y="93.19" width="5.75" height="5.75"/><rect class="cls-8" x="141.07" y="93.17" width="5.75" height="5.75"/><rect class="cls-8" x="148.95" y="93.17" width="5.75" height="5.75"/><rect class="cls-8" x="125.07" y="157.1" width="5.75" height="5.75"/><rect class="cls-8" x="141.16" y="157.08" width="5.75" height="5.75"/><rect class="cls-8" x="149.12" y="157.08" width="5.75" height="5.75"/><rect class="cls-8" x="125.12" y="101.12" width="5.75" height="5.75"/><rect class="cls-8" x="125.12" y="109.12" width="5.75" height="5.75"/><rect class="cls-8" x="125.12" y="117.12" width="5.75" height="5.75"/><rect class="cls-8" x="125.12" y="125.12" width="5.75" height="5.75"/><rect class="cls-8" x="148.95" y="101.1" width="5.75" height="5.75"/><rect class="cls-8" x="148.95" y="109.1" width="5.75" height="5.75"/><rect class="cls-8" x="148.95" y="117.1" width="5.75" height="5.75"/><rect class="cls-8" x="148.95" y="125.1" width="5.75" height="5.75"/><rect class="cls-8" x="125.12" y="133.18" width="5.75" height="5.75"/><rect class="cls-8" x="125.12" y="141.18" width="5.75" height="5.75"/><rect class="cls-8" x="125.12" y="149.06" width="5.75" height="5.75"/><rect class="cls-8" x="148.95" y="133.15" width="5.75" height="5.75"/><rect class="cls-8" x="148.95" y="141.15" width="5.75" height="5.75"/><rect class="cls-8" x="148.95" y="149.03" width="5.75" height="5.75"/><rect class="cls-8" x="133.06" y="93.17" width="5.75" height="5.75"/><rect class="cls-8" x="133.14" y="157.08" width="5.75" height="5.75"/></g></svg>