<svg xmlns="http://www.w3.org/2000/svg" xmlns:xlink="http://www.w3.org/1999/xlink" viewBox="0 0 256 256"><defs><style>.cls-1{fill:#fff;}.cls-2{fill:url(#linear-gradient);}.cls-3{mask:url(#mask);}.cls-4{fill:url(#linear-gradient-2);}.cls-5{fill:#262626;}</style><linearGradient id="linear-gradient" x1="72.57" y1="32" x2="183.43" y2="224" gradientUnits="userSpaceOnUse"><stop offset="0" stop-color="#c8c8c8"/><stop offset="1" stop-color="#969696"/></linearGradient><mask id="mask" x="0" y="0" width="256" height="256" maskUnits="userSpaceOnUse"><path class="cls-1" d="M128,11.55,228.85,69.77V186.23L128,244.45,27.15,186.23V69.77L128,11.55M128,0,17.15,64V192L128,256l110.85-64V64L128,0Z"/></mask><linearGradient id="linear-gradient-2" x1="429.5" y1="302.49" x2="173.5" y2="46.49" gradientTransform="translate(-173.5 -46.49)" gradientUnits="userSpaceOnUse"><stop offset="0" stop-color="lime"/><stop offset="1" stop-color="#baffba"/></linearGradient></defs><title>Hex</title><g id="Email"><g id="Base_Hex" data-name="Base Hex"><polygon class="cls-2" points="128 0 17.15 64 17.15 192 128 256 238.85 192 238.85 64 128 0"/></g><g class="cls-3"><g id="Outline"><rect class="cls-4" width="256" height="256"/></g></g><path class="cls-5" d="M81.42,171h93.17a10.7,10.7,0,0,0,10.75-10.75V111.43a31.54,31.54,0,0,1-7.17,6.16q-3.81,2.46-14.84,9.52t-17,11.09q-11,7.73-18.36,7.73t-18.36-7.73q-5.26-3.58-15.9-10.36t-15.9-10.36a35.28,35.28,0,0,1-3.7-3q-2.35-2.13-3.47-3v48.82A10.7,10.7,0,0,0,81.42,171Z"/><path class="cls-5" d="M81.64,111.54q5.26,3.58,15.4,10t14.5,9.29l1.9,1.29q1.57,1.06,2.35,1.57t2.35,1.46q1.57,1,2.63,1.46t2.41,1.06a16.59,16.59,0,0,0,2.52.84,9.56,9.56,0,0,0,4.59,0,16.59,16.59,0,0,0,2.52-.84q1.34-.56,2.41-1.06t2.63-1.46q1.57-1,2.35-1.46t2.35-1.57l1.9-1.29,29.9-19.48a32.46,32.46,0,0,0,7.45-7q3.53-4.42,3.53-8.23a11,11,0,0,0-3.08-7.84A10.14,10.14,0,0,0,174.58,85H81.42A10.71,10.71,0,0,0,70.67,95.75q0,4.14,3.42,8.57A32.77,32.77,0,0,0,81.64,111.54Z"/></g></svg>