<svg xmlns="http://www.w3.org/2000/svg" xmlns:xlink="http://www.w3.org/1999/xlink" viewBox="0 0 554.25 554.25"><defs><style>.cls-1{fill:url(#linear-gradient);}.cls-2{fill:url(#linear-gradient-2);}.cls-3{fill:#4d4d4d;}.cls-4{fill:#333;}.cls-5{fill:#1a1a1a;}.cls-6{fill:#fff7a6;}.cls-7{fill:#ed1c24;}</style><linearGradient id="linear-gradient" x1="58.56" y1="495.69" x2="495.69" y2="58.56" gradientTransform="matrix(-1, 0, 0, 1, 554.25, 0)" gradientUnits="userSpaceOnUse"><stop offset="0" stop-color="#ff1556"/><stop offset="1" stop-color="#ff79b5"/></linearGradient><linearGradient id="linear-gradient-2" x1="495.69" y1="495.69" x2="58.56" y2="58.56" gradientUnits="userSpaceOnUse"><stop offset="0" stop-color="red"/><stop offset="1" stop-color="#ffb4b4"/></linearGradient></defs><title>Hex</title><g id="Fihgt"><polygon class="cls-1" points="110.9 309.13 0 245.13 0 117.13 110.85 53.13 221.7 117.13 332.55 53.13 443.4 117.13 443.4 245.13 554.25 309.13 554.25 437.13 443.4 501.13 332.55 437.13 221.7 501.13 110.85 437.13 110.9 309.13"/><path class="cls-2" d="M110.85,64.67,216.7,125.79l5,2.89,5-2.89L332.55,64.67,433.4,122.9v128l5,2.89L544.25,314.9V431.35L443.4,489.58,337.55,428.46l-5-2.89-5,2.89L221.7,489.58,120.85,431.35l0-122.22v-5.78l-5-2.89L10,239.35V122.9L110.85,64.67m221.7-11.55-110.85,64-110.85-64L0,117.13v128l110.9,64-.05,128,110.85,64,110.85-64,110.85,64,110.85-64v-128l-110.85-64v-128l-110.85-64Z"/><path class="cls-3" d="M238.83,319.33h9.57v-9.57h-9.57Zm9.57-9.57H258V290.61H248.4Zm9.57-38.3v-9.57H248.4v-9.57H229.25v9.57h9.57v9.57h9.57V281H258v9.57h9.57V271.46Z"/><polygon class="cls-4" points="257.98 185.29 248.4 185.29 248.4 194.86 238.83 194.86 238.83 214.01 229.25 214.01 229.25 233.16 229.25 252.31 248.4 252.31 248.4 233.16 257.98 233.16 257.98 214.01 257.98 204.44 277.13 204.44 277.13 185.29 257.98 185.29"/><path class="cls-5" d="M210.1,319.33h9.57V300.18H210.1Zm9.57-19.15h9.57V281h-9.57ZM229.25,281h9.57V261.89h-9.57Zm0-76.6h-9.57v19.15h9.57V214h9.57V194.86h-9.57Zm19.15,38.3H258v-9.57H248.4ZM258,223.59v9.57h9.57v-9.57Z"/><polygon class="cls-3" points="315.42 204.44 305.85 204.44 296.27 204.44 286.7 204.44 277.13 204.44 257.98 204.44 257.98 223.59 277.13 223.59 286.7 223.59 286.7 214.01 296.27 214.01 305.85 214.01 315.42 214.01 325 214.01 325 204.44 315.42 204.44"/><path class="cls-6" d="M305.85,194.86v9.57h28.72v-9.57Zm28.72,9.57V214h9.57v-9.57Zm-28.72,19.15h28.72V214H305.85Z"/><rect class="cls-7" x="325" y="204.44" width="9.57" height="9.57"/><rect x="169.09" y="319.33" width="216.07" height="49.63" rx="19.44" ry="19.44"/></g></svg>