<svg xmlns="http://www.w3.org/2000/svg" xmlns:xlink="http://www.w3.org/1999/xlink" viewBox="0 0 256 256"><defs><style>.cls-1{fill:#fff;}.cls-2{fill:url(#linear-gradient);}.cls-3{mask:url(#mask);}.cls-4{fill:url(#linear-gradient-2);}.cls-5{fill:blue;}.cls-6,.cls-7{fill:none;stroke:#000;stroke-linecap:round;stroke-linejoin:round;}.cls-6{stroke-width:4px;}.cls-7{stroke-width:6px;}</style><linearGradient id="linear-gradient" x1="215.43" y1="215.43" x2="40.57" y2="40.57" gradientUnits="userSpaceOnUse"><stop offset="0" stop-color="#ff1556"/><stop offset="1" stop-color="#ff9fc4"/></linearGradient><mask id="mask" x="0" y="0" width="256" height="256" maskUnits="userSpaceOnUse"><path class="cls-1" d="M128,11.55,228.85,69.77V186.23L128,244.45,27.15,186.23V69.77L128,11.55M128,0,17.15,64V192L128,256l110.85-64V64L128,0Z"/></mask><linearGradient id="linear-gradient-2" x1="429.5" y1="302.49" x2="173.5" y2="46.49" gradientTransform="translate(-173.5 -46.49)" gradientUnits="userSpaceOnUse"><stop offset="0" stop-color="#ff0"/><stop offset="1" stop-color="#ffffb4"/></linearGradient></defs><title>Hex</title><g id="PopMIDI"><g id="Base_Hex" data-name="Base Hex"><polygon class="cls-2" points="128 0 17.15 64 17.15 192 128 256 238.85 192 238.85 64 128 0"/></g><g class="cls-3"><g id="Outline"><rect class="cls-4" width="256" height="256"/></g></g><path class="cls-5" d="M102.23,179.89c-12.25,0-22.6-6-22.6-13.18V120.25h45.2v46.45C124.83,173.85,114.48,179.89,102.23,179.89Z"/><path d="M123.1,122v44.72c0,5.53-8.39,11.45-20.87,11.45s-20.87-5.92-20.87-11.45V122H123.1m3.46-3.46H77.9v48.18c0,8.24,10.89,14.91,24.33,14.91s24.33-6.68,24.33-14.91V118.52Z"/><path class="cls-5" d="M102.23,131.7c-12.25,0-22.6-6-22.6-13.18s10.35-13.18,22.6-13.18,22.6,6,22.6,13.18S114.48,131.7,102.23,131.7Z"/><path d="M102.23,107.07c12.48,0,20.87,5.92,20.87,11.45S114.71,130,102.23,130s-20.87-5.92-20.87-11.45,8.39-11.45,20.87-11.45m0-3.46c-13.44,0-24.33,6.68-24.33,14.91s10.89,14.91,24.33,14.91,24.33-6.68,24.33-14.91-10.89-14.91-24.33-14.91Z"/><ellipse cx="111.89" cy="118.52" rx="6.44" ry="3.46"/><line class="cls-6" x1="165.34" y1="74.38" x2="165.34" y2="108.66"/><line class="cls-7" x1="141.56" y1="80.78" x2="164.32" y2="74.59"/><line class="cls-6" x1="140.56" y1="115.06" x2="140.56" y2="80.78"/><ellipse cx="146" cy="115.22" rx="7.38" ry="4.96"/><ellipse cx="170.73" cy="108.76" rx="7.38" ry="4.96"/></g></svg>