<svg xmlns="http://www.w3.org/2000/svg" xmlns:xlink="http://www.w3.org/1999/xlink" viewBox="0 0 448 448"><defs><style>.cls-1{fill:#fff;}.cls-2{mask:url(#mask);}.cls-3{fill:url(#linear-gradient);}</style><mask id="mask" x="0" y="0" width="448" height="448" maskUnits="userSpaceOnUse"><path class="cls-1" d="M224,11.55,324.85,69.77v128l5,2.89,105.8,61.11,0,116.45L334.85,436.45,229,375.34l-5-2.89-5,2.89L113.15,436.45,12.3,378.23V261.77l105.85-61.11,5-2.89v-128L224,11.55M224,0,113.15,64V192L2.3,256V384l110.85,64L224,384l110.85,64L445.7,384l-.05-128-110.8-64V64L224,0Z"/></mask><linearGradient id="linear-gradient" x1="448" y1="448" x2="0" gradientUnits="userSpaceOnUse"><stop offset="0" stop-color="blue"/><stop offset="1" stop-color="#a3a3ff"/></linearGradient></defs><title>Hex</title><g id="Blue_Hex_Size_2" data-name="Blue Hex Size 2"><polygon points="445.65 256 334.85 192 334.85 64 224 0 113.15 64 113.15 192 2.3 256 2.3 384 113.15 448 224 384 334.85 448 445.7 384 445.65 256"/><g class="cls-2"><g id="Outline"><rect class="cls-3" width="448" height="448"/></g></g></g></svg>